<svg width="185" height="186" viewBox="0 0 185 186" fill="none" xmlns="http://www.w3.org/2000/svg">
<g clip-path="url(#clip0_369_7)">
<path fill-rule="evenodd" clip-rule="evenodd" d="M179.861 92.9994C179.861 141.506 140.743 180.834 92.4997 180.834C44.2558 180.834 5.13934 141.506 5.13934 92.9994C5.13934 44.4946 44.2558 5.1658 92.4997 5.1658C140.743 5.1658 179.861 44.4946 179.861 92.9994V92.9994ZM185 92.9994C185 41.6412 143.581 -9.92494e-06 92.4997 -9.92494e-06C41.4184 -9.92494e-06 0 41.6412 0 92.9994C0 144.357 41.4184 186 92.4997 186C143.581 186 185 144.357 185 92.9994" fill="#5B2682"/>
<path fill-rule="evenodd" clip-rule="evenodd" d="M177.512 92.6213C177.512 139.502 139.501 177.512 92.6216 177.512C45.7418 177.512 7.73146 139.502 7.73146 92.6213C7.73146 45.7413 45.7418 7.73065 92.6216 7.73065C139.501 7.73065 177.512 45.7413 177.512 92.6213ZM182.657 92.6213C182.657 42.9 142.343 2.58533 92.6216 2.58533C42.9013 2.58533 2.58667 42.9 2.58667 92.6213C2.58667 142.343 42.9013 182.656 92.6216 182.656C142.343 182.656 182.657 142.343 182.657 92.6213Z" fill="#5D2583"/>
<path fill-rule="evenodd" clip-rule="evenodd" d="M174.939 92.6214C174.939 138.08 138.08 174.939 92.6214 174.939C47.1631 174.939 10.3042 138.08 10.3042 92.6214C10.3042 47.1627 47.1631 10.304 92.6214 10.304C138.08 10.304 174.939 47.1627 174.939 92.6214ZM180.084 92.6214C180.084 44.3214 140.921 5.15868 92.6214 5.15868C44.3214 5.15868 5.15942 44.3214 5.15942 92.6214C5.15942 140.923 44.3214 180.085 92.6214 180.085C140.921 180.085 180.084 140.923 180.084 92.6214" fill="#5D2583"/>
<path fill-rule="evenodd" clip-rule="evenodd" d="M172.367 92.6211C172.367 136.66 136.66 172.368 92.6215 172.368C48.5835 172.368 12.8762 136.66 12.8762 92.6211C12.8762 48.5824 48.5835 12.8757 92.6215 12.8757C136.66 12.8757 172.367 48.5824 172.367 92.6211ZM177.512 92.6211C177.512 45.7424 139.501 7.73041 92.6215 7.73041C45.7429 7.73041 7.73145 45.7424 7.73145 92.6211C7.73145 139.5 45.7429 177.512 92.6215 177.512C139.501 177.512 177.512 139.5 177.512 92.6211Z" fill="#602483"/>
<path fill-rule="evenodd" clip-rule="evenodd" d="M169.795 92.6213C169.795 135.238 135.24 169.795 92.6214 169.795C50.0042 169.795 15.449 135.238 15.449 92.6213C15.449 50.0039 50.0042 15.4479 92.6214 15.4479C135.24 15.4479 169.795 50.0039 169.795 92.6213V92.6213ZM174.939 92.6213C174.939 47.1626 138.08 10.3039 92.6214 10.3039C47.1626 10.3039 10.3037 47.1626 10.3037 92.6213C10.3037 138.081 47.1626 174.938 92.6214 174.938C138.08 174.938 174.939 138.081 174.939 92.6213Z" fill="#602483"/>
<path fill-rule="evenodd" clip-rule="evenodd" d="M167.223 92.6213C167.223 133.819 133.819 167.221 92.6215 167.221C51.4247 167.221 18.0215 133.819 18.0215 92.6213C18.0215 51.4239 51.4247 18.0213 92.6215 18.0213C133.819 18.0213 167.223 51.4239 167.223 92.6213V92.6213ZM172.367 92.6213C172.367 48.5826 136.66 12.8759 92.6215 12.8759C48.5835 12.8759 12.8762 48.5826 12.8762 92.6213C12.8762 136.66 48.5835 172.368 92.6215 172.368C136.66 172.368 172.367 136.66 172.367 92.6213Z" fill="#612586"/>
<path fill-rule="evenodd" clip-rule="evenodd" d="M164.649 92.621C164.649 132.397 132.398 164.647 92.6214 164.647C52.8454 164.647 20.5943 132.397 20.5943 92.621C20.5943 52.845 52.8454 20.593 92.6214 20.593C132.398 20.593 164.649 52.845 164.649 92.621V92.621ZM169.795 92.621C169.795 50.0036 135.24 15.4476 92.6214 15.4476C50.0042 15.4476 15.449 50.0036 15.449 92.621C15.449 135.238 50.0042 169.794 92.6214 169.794C135.24 169.794 169.795 135.238 169.795 92.621" fill="#652487"/>
<path fill-rule="evenodd" clip-rule="evenodd" d="M162.077 92.6212C162.077 130.976 130.978 162.077 92.6215 162.077C54.2663 162.077 23.1668 130.976 23.1668 92.6212C23.1668 54.2655 54.2663 23.1652 92.6215 23.1652C130.978 23.1652 162.077 54.2655 162.077 92.6212ZM167.221 92.6212C167.221 51.4244 133.819 18.0212 92.6215 18.0212C51.4251 18.0212 18.0215 51.4244 18.0215 92.6212C18.0215 133.818 51.4251 167.221 92.6215 167.221C133.819 167.221 167.221 133.818 167.221 92.6212" fill="#652487"/>
<path fill-rule="evenodd" clip-rule="evenodd" d="M159.505 92.6213C159.505 129.557 129.557 159.505 92.6214 159.505C55.6865 159.505 25.7386 129.557 25.7386 92.6213C25.7386 55.6859 55.6865 25.7386 92.6214 25.7386C129.557 25.7386 159.505 55.6859 159.505 92.6213ZM164.649 92.6213C164.649 52.8453 132.398 20.5933 92.6214 20.5933C52.8454 20.5933 20.5933 52.8453 20.5933 92.6213C20.5933 132.398 52.8454 164.649 92.6214 164.649C132.398 164.649 164.649 132.398 164.649 92.6213" fill="#672387"/>
<path fill-rule="evenodd" clip-rule="evenodd" d="M156.933 92.6209C156.933 128.135 128.136 156.931 92.6214 156.931C57.1074 156.931 28.311 128.135 28.311 92.6209C28.311 57.1064 57.1074 28.3103 92.6214 28.3103C128.136 28.3103 156.933 57.1064 156.933 92.6209V92.6209ZM162.077 92.6209C162.077 54.2652 130.978 23.1649 92.6214 23.1649C54.2662 23.1649 23.1667 54.2652 23.1667 92.6209C23.1667 130.976 54.2662 162.077 92.6214 162.077C130.978 162.077 162.077 130.976 162.077 92.6209Z" fill="#692287"/>
<path fill-rule="evenodd" clip-rule="evenodd" d="M154.36 92.621C154.36 126.716 126.716 154.36 92.6213 154.36C58.5271 154.36 30.8833 126.716 30.8833 92.621C30.8833 58.5268 58.5271 30.8824 92.6213 30.8824C126.716 30.8824 154.36 58.5268 154.36 92.621V92.621ZM159.505 92.621C159.505 55.6857 129.557 25.7384 92.6213 25.7384C55.6864 25.7384 25.7385 55.6857 25.7385 92.621C25.7385 129.557 55.6864 159.505 92.6213 159.505C129.557 159.505 159.505 129.557 159.505 92.621Z" fill="#6A2288"/>
<path fill-rule="evenodd" clip-rule="evenodd" d="M151.788 92.6212C151.788 125.295 125.295 151.786 92.6214 151.786C59.9485 151.786 33.4564 125.295 33.4564 92.6212C33.4564 59.9478 59.9485 33.4559 92.6214 33.4559C125.295 33.4559 151.788 59.9478 151.788 92.6212V92.6212ZM156.933 92.6212C156.933 57.1067 128.136 28.3106 92.6214 28.3106C57.1074 28.3106 28.311 57.1067 28.311 92.6212C28.311 128.135 57.1074 156.932 92.6214 156.932C128.136 156.932 156.933 128.135 156.933 92.6212" fill="#6A2288"/>
<path fill-rule="evenodd" clip-rule="evenodd" d="M149.216 92.6213C149.216 123.874 123.875 149.215 92.6215 149.215C61.369 149.215 36.0289 123.874 36.0289 92.6213C36.0289 61.3688 61.369 36.028 92.6215 36.028C123.875 36.028 149.216 61.3688 149.216 92.6213V92.6213ZM154.36 92.6213C154.36 58.5276 126.716 30.8827 92.6215 30.8827C58.5278 30.8827 30.8835 58.5276 30.8835 92.6213C30.8835 126.715 58.5278 154.36 92.6215 154.36C126.716 154.36 154.36 126.715 154.36 92.6213" fill="#6D2289"/>
<path fill-rule="evenodd" clip-rule="evenodd" d="M146.643 92.6209C146.643 122.454 122.454 146.642 92.6214 146.642C62.7891 146.642 38.6006 122.454 38.6006 92.6209C38.6006 62.7887 62.7891 38.5996 92.6214 38.5996C122.454 38.5996 146.643 62.7887 146.643 92.6209V92.6209ZM151.788 92.6209C151.788 59.9475 125.295 33.4556 92.6214 33.4556C59.9484 33.4556 33.4563 59.9475 33.4563 92.6209C33.4563 125.294 59.9484 151.788 92.6214 151.788C125.295 151.788 151.788 125.294 151.788 92.6209" fill="#6F2189"/>
<path fill-rule="evenodd" clip-rule="evenodd" d="M144.071 92.6211C144.071 121.033 121.034 144.071 92.6215 144.071C64.21 144.071 41.1731 121.033 41.1731 92.6211C41.1731 64.2097 64.21 41.1732 92.6215 41.1732C121.034 41.1732 144.071 64.2097 144.071 92.6211ZM149.216 92.6211C149.216 61.3686 123.875 36.0278 92.6215 36.0278C61.3689 36.0278 36.0288 61.3686 36.0288 92.6211C36.0288 123.874 61.3689 149.214 92.6215 149.214C123.875 149.214 149.216 123.874 149.216 92.6211" fill="#71218B"/>
<path fill-rule="evenodd" clip-rule="evenodd" d="M141.497 92.6212C141.497 119.612 119.613 141.497 92.6214 141.497C65.6312 141.497 43.7459 119.612 43.7459 92.6212C43.7459 65.6302 65.6312 43.7452 92.6214 43.7452C119.613 43.7452 141.497 65.6302 141.497 92.6212V92.6212ZM146.643 92.6212C146.643 62.789 122.454 38.5999 92.6214 38.5999C62.7891 38.5999 38.6006 62.789 38.6006 92.6212C38.6006 122.455 62.7891 146.643 92.6214 146.643C122.454 146.643 146.643 122.455 146.643 92.6212" fill="#71218B"/>
<path fill-rule="evenodd" clip-rule="evenodd" d="M138.925 92.6213C138.925 118.192 118.192 138.925 92.6215 138.925C67.0512 138.925 46.3184 118.192 46.3184 92.6213C46.3184 67.0511 67.0512 46.3173 92.6215 46.3173C118.192 46.3173 138.925 67.0511 138.925 92.6213V92.6213ZM144.071 92.6213C144.071 64.2099 121.033 41.1733 92.6215 41.1733C64.21 41.1733 41.1731 64.2099 41.1731 92.6213C41.1731 121.033 64.21 144.071 92.6215 144.071C121.033 144.071 144.071 121.033 144.071 92.6213Z" fill="#73208B"/>
<path fill-rule="evenodd" clip-rule="evenodd" d="M136.353 92.6211C136.353 116.771 116.772 136.353 92.6216 136.353C68.4721 136.353 48.8909 116.771 48.8909 92.6211C48.8909 68.4711 68.4721 48.8904 92.6216 48.8904C116.772 48.8904 136.353 68.4711 136.353 92.6211V92.6211ZM141.497 92.6211C141.497 65.63 119.613 43.7451 92.6216 43.7451C65.6309 43.7451 43.7461 65.63 43.7461 92.6211C43.7461 119.612 65.6309 141.497 92.6216 141.497C119.613 141.497 141.497 119.612 141.497 92.6211" fill="#771F8C"/>
<path fill-rule="evenodd" clip-rule="evenodd" d="M133.781 92.6212C133.781 115.35 115.352 133.78 92.6214 133.78C69.8922 133.78 51.4626 115.35 51.4626 92.6212C51.4626 69.892 69.8922 51.4624 92.6214 51.4624C115.352 51.4624 133.781 69.892 133.781 92.6212V92.6212ZM138.925 92.6212C138.925 67.0509 118.192 46.3172 92.6214 46.3172C67.0512 46.3172 46.3184 67.0509 46.3184 92.6212C46.3184 118.191 67.0512 138.925 92.6214 138.925C118.192 138.925 138.925 118.191 138.925 92.6212" fill="#771F8C"/>
<path fill-rule="evenodd" clip-rule="evenodd" d="M131.208 92.6213C131.208 113.93 113.93 131.207 92.6215 131.207C71.3133 131.207 54.0357 113.93 54.0357 92.6213C54.0357 71.3125 71.3133 54.0354 92.6215 54.0354C113.93 54.0354 131.208 71.3125 131.208 92.6213ZM136.353 92.6213C136.353 68.4713 116.772 48.8906 92.6215 48.8906C68.4721 48.8906 48.8909 68.4713 48.8909 92.6213C48.8909 116.771 68.4721 136.353 92.6215 136.353C116.772 136.353 136.353 116.771 136.353 92.6213" fill="#781E8D"/>
<path fill-rule="evenodd" clip-rule="evenodd" d="M128.636 92.6213C128.636 112.509 112.51 128.635 92.6214 128.635C72.7334 128.635 56.6079 112.509 56.6079 92.6213C56.6079 72.7333 72.7334 56.6079 92.6214 56.6079C112.51 56.6079 128.636 72.7333 128.636 92.6213ZM133.78 92.6213C133.78 69.8921 115.352 51.4631 92.6214 51.4631C69.8922 51.4631 51.4631 69.8921 51.4631 92.6213C51.4631 115.351 69.8922 133.78 92.6214 133.78C115.352 133.78 133.78 115.351 133.78 92.6213Z" fill="#7A1E8D"/>
<path fill-rule="evenodd" clip-rule="evenodd" d="M126.064 92.621C126.064 111.088 111.089 126.062 92.6215 126.062C74.1543 126.062 59.1804 111.088 59.1804 92.621C59.1804 74.1533 74.1543 59.1794 92.6215 59.1794C111.089 59.1794 126.064 74.1533 126.064 92.621ZM131.208 92.621C131.208 71.3122 113.93 54.0352 92.6215 54.0352C71.3132 54.0352 54.0356 71.3122 54.0356 92.621C54.0356 113.929 71.3132 131.207 92.6215 131.207C113.93 131.207 131.208 113.929 131.208 92.621Z" fill="#7E1D8E"/>
<path fill-rule="evenodd" clip-rule="evenodd" d="M123.491 92.6211C123.491 109.668 109.669 123.491 92.6214 123.491C75.5746 123.491 61.7522 109.668 61.7522 92.6211C61.7522 75.5743 75.5746 61.7519 92.6214 61.7519C109.669 61.7519 123.491 75.5743 123.491 92.6211ZM128.636 92.6211C128.636 72.7331 112.51 56.6077 92.6214 56.6077C72.7334 56.6077 56.6079 72.7331 56.6079 92.6211C56.6079 112.509 72.7334 128.635 92.6214 128.635C112.51 128.635 128.636 112.509 128.636 92.6211Z" fill="#7E1D8E"/>
<path fill-rule="evenodd" clip-rule="evenodd" d="M120.918 92.6213C120.918 108.247 108.248 120.918 92.6215 120.918C76.996 120.918 64.3251 108.247 64.3251 92.6213C64.3251 76.9958 76.996 64.3249 92.6215 64.3249C108.248 64.3249 120.918 76.9958 120.918 92.6213V92.6213ZM126.064 92.6213C126.064 74.1536 111.089 59.1797 92.6215 59.1797C74.1543 59.1797 59.1804 74.1536 59.1804 92.6213C59.1804 111.088 74.1543 126.062 92.6215 126.062C111.089 126.062 126.064 111.088 126.064 92.6213Z" fill="#821C8D"/>
<path fill-rule="evenodd" clip-rule="evenodd" d="M118.347 92.621C118.347 106.827 106.827 118.345 92.6214 118.345C78.4157 118.345 66.8974 106.827 66.8974 92.621C66.8974 78.4153 78.4157 66.897 92.6214 66.897C106.827 66.897 118.347 78.4153 118.347 92.621V92.621ZM123.491 92.621C123.491 75.5742 109.668 61.7523 92.6214 61.7523C75.575 61.7523 61.7532 75.5742 61.7532 92.621C61.7532 109.668 75.575 123.489 92.6214 123.489C109.668 123.489 123.491 109.668 123.491 92.621Z" fill="#821C8D"/>
<path fill-rule="evenodd" clip-rule="evenodd" d="M115.774 92.621C115.774 105.406 105.407 115.773 92.6213 115.773C79.8369 115.773 69.4698 105.406 69.4698 92.621C69.4698 79.8357 79.8369 69.4694 92.6213 69.4694C105.407 69.4694 115.774 79.8357 115.774 92.621V92.621ZM120.918 92.621C120.918 76.9945 108.248 64.3246 92.6213 64.3246C76.9953 64.3246 64.325 76.9945 64.325 92.621C64.325 108.247 76.9953 120.918 92.6213 120.918C108.248 120.918 120.918 108.247 120.918 92.621" fill="#831B8F"/>
<path fill-rule="evenodd" clip-rule="evenodd" d="M113.201 92.6212C113.201 103.986 103.987 113.2 92.6215 113.2C81.2569 113.2 72.0423 103.986 72.0423 92.6212C72.0423 81.2567 81.2569 72.0415 92.6215 72.0415C103.987 72.0415 113.201 81.2567 113.201 92.6212V92.6212ZM118.347 92.6212C118.347 78.4155 106.827 66.8972 92.6215 66.8972C78.4157 66.8972 66.8975 78.4155 66.8975 92.6212C66.8975 106.827 78.4157 118.345 92.6215 118.345C106.827 118.345 118.347 106.827 118.347 92.6212" fill="#861A8F"/>
<path fill-rule="evenodd" clip-rule="evenodd" d="M110.628 92.6213C110.628 102.565 102.566 110.628 92.6213 110.628C82.6781 110.628 74.6151 102.565 74.6151 92.6213C74.6151 82.6781 82.6781 74.6145 92.6213 74.6145C102.566 74.6145 110.628 82.6781 110.628 92.6213V92.6213ZM115.774 92.6213C115.774 79.836 105.407 69.4697 92.6213 69.4697C79.8369 69.4697 69.4697 79.836 69.4697 92.6213C69.4697 105.406 79.8369 115.773 92.6213 115.773C105.407 115.773 115.774 105.406 115.774 92.6213" fill="#871A8F"/>
<path fill-rule="evenodd" clip-rule="evenodd" d="M108.056 92.621C108.056 101.144 101.145 108.056 92.6214 108.056C84.0985 108.056 77.187 101.144 77.187 92.621C77.187 84.0981 84.0985 77.1866 92.6214 77.1866C101.145 77.1866 108.056 84.0981 108.056 92.621V92.621ZM113.201 92.621C113.201 81.257 103.986 72.0423 92.6214 72.0423C81.2579 72.0423 72.0427 81.257 72.0427 92.621C72.0427 103.986 81.2579 113.2 92.6214 113.2C103.986 113.2 113.201 103.986 113.201 92.621" fill="#8B198F"/>
<path fill-rule="evenodd" clip-rule="evenodd" d="M105.485 92.6211C105.485 99.7238 99.7247 105.483 92.6215 105.483C85.519 105.483 79.7595 99.7238 79.7595 92.6211C79.7595 85.5181 85.519 79.7591 92.6215 79.7591C99.7247 79.7591 105.485 85.5181 105.485 92.6211ZM110.629 92.6211C110.629 82.6769 102.566 74.6143 92.6215 74.6143C82.6778 74.6143 74.6152 82.6769 74.6152 92.6211C74.6152 102.565 82.6778 110.628 92.6215 110.628C102.566 110.628 110.629 102.565 110.629 92.6211" fill="#8B198F"/>
<path fill-rule="evenodd" clip-rule="evenodd" d="M102.912 92.6212C102.912 98.3035 98.3037 102.911 92.6214 102.911C86.9402 102.911 82.3318 98.3035 82.3318 92.6212C82.3318 86.9395 86.9402 82.3316 92.6214 82.3316C98.3037 82.3316 102.912 86.9395 102.912 92.6212ZM108.056 92.6212C108.056 84.0983 101.145 77.1868 92.6214 77.1868C84.0985 77.1868 77.187 84.0983 77.187 92.6212C77.187 101.145 84.0985 108.056 92.6214 108.056C101.145 108.056 108.056 101.145 108.056 92.6212" fill="#8D198F"/>
<path fill-rule="evenodd" clip-rule="evenodd" d="M100.339 92.6214C100.339 96.8829 96.8835 100.339 92.6215 100.339C88.3606 100.339 84.9054 96.8829 84.9054 92.6214C84.9054 88.3605 88.3606 84.9047 92.6215 84.9047C96.8835 84.9047 100.339 88.3605 100.339 92.6214ZM105.485 92.6214C105.485 85.5183 99.7247 79.7594 92.6215 79.7594C85.519 79.7594 79.7595 85.5183 79.7595 92.6214C79.7595 99.7241 85.519 105.483 92.6215 105.483C99.7247 105.483 105.485 99.7241 105.485 92.6214Z" fill="#8F188F"/>
<path fill-rule="evenodd" clip-rule="evenodd" d="M97.7667 92.6211C97.7667 95.4623 95.4625 97.7654 92.6213 97.7654C89.7807 97.7654 87.4771 95.4623 87.4771 92.6211C87.4771 89.78 89.7807 87.4763 92.6213 87.4763C95.4625 87.4763 97.7667 89.78 97.7667 92.6211ZM102.911 92.6211C102.911 86.9394 98.3036 82.332 92.6213 82.332C86.9401 82.332 82.3323 86.9394 82.3323 92.6211C82.3323 98.3034 86.9401 102.91 92.6213 102.91C98.3036 102.91 102.911 98.3034 102.911 92.6211Z" fill="#8F188F"/>
<path fill-rule="evenodd" clip-rule="evenodd" d="M100.339 92.6212C100.339 88.3602 96.8835 84.9045 92.6215 84.9045C88.3605 84.9045 84.9048 88.3602 84.9048 92.6212C84.9048 96.8826 88.3605 100.338 92.6215 100.338C96.8835 100.338 100.339 96.8826 100.339 92.6212Z" fill="#8F188F"/>
<path fill-rule="evenodd" clip-rule="evenodd" d="M97.7666 92.6214C97.7666 89.7803 95.4625 87.4766 92.6213 87.4766C89.7806 87.4766 87.4771 89.7803 87.4771 92.6214C87.4771 95.4626 89.7806 97.7656 92.6213 97.7656C95.4625 97.7656 97.7666 95.4626 97.7666 92.6214Z" fill="#91188F"/>
<path fill-rule="evenodd" clip-rule="evenodd" d="M95.1939 92.6214C95.1939 91.2017 94.0423 90.049 92.6215 90.049C91.2017 90.049 90.0491 91.2017 90.0491 92.6214C90.0491 94.0417 91.2017 95.1943 92.6215 95.1943C94.0423 95.1943 95.1939 94.0417 95.1939 92.6214Z" fill="#91188F"/>
<path fill-rule="evenodd" clip-rule="evenodd" d="M59.4964 125.994C58.6849 124.575 57.7245 123.935 56.6984 123.935C56.5489 123.935 56.3979 123.948 56.2469 123.975C55.6729 124.087 55.1969 124.31 54.9885 124.84C54.788 125.367 54.8369 126.241 55.4916 127.503C56.1307 128.773 57.6511 129.94 58.9489 130.421C60.2484 130.931 61.2609 130.9 61.2667 130.909C61.2667 130.893 60.8833 130.005 60.5604 128.981C60.2063 127.929 59.9849 126.81 59.4964 125.994V125.994ZM49.6703 125.117C49.1125 124.937 48.6317 125.265 48.1364 125.462C47.6803 125.643 47.1579 125.733 46.8557 126.146C46.3161 126.135 45.7511 126.027 45.2953 126.403C45.2724 126.422 45.2511 126.443 45.2292 126.462C44.9235 125.994 44.3573 125.859 43.8688 125.63C43.3355 125.379 42.8287 124.984 42.1995 125.146C41.0036 125.452 39.8724 126.793 39.3229 128.101C38.4677 130.135 39.0803 132.134 40.5073 132.802C41.6984 133.361 43.2328 132.889 44.3005 131.585C44.7859 132.87 45.8115 133.69 46.9307 133.69C47.8636 133.69 48.7323 133.12 49.2765 132.185C49.7844 132.324 50.3005 132.312 50.7719 132.126C52.0995 131.601 52.7631 129.832 52.1047 127.947C51.6812 126.734 50.7333 125.461 49.6703 125.117ZM47.3552 123.741C47.65 124.215 47.8235 124.758 48.0473 125.281L48.1052 125.257C47.9063 124.731 47.7568 124.176 47.4724 123.672C47.1969 123.165 46.7579 122.732 46.2177 122.488L46.1912 122.491C45.5817 122.72 45.0688 123.167 44.7303 123.705C44.3812 124.241 44.1776 124.84 43.9203 125.406L43.9771 125.435C44.2583 124.872 44.4849 124.285 44.8427 123.781C45.1667 123.309 45.6172 122.939 46.1396 122.734C46.5099 123.12 46.7484 123.621 46.8369 124.158C46.9421 124.737 46.8995 125.335 46.9156 125.932H46.9792C46.9855 125.34 47.0552 124.741 46.9708 124.137C46.9177 123.69 46.7588 123.246 46.5031 122.867C46.8479 123.082 47.1396 123.384 47.3552 123.741V123.741ZM35.1833 125.259C34.524 124.245 33.7912 123.789 33.0355 123.789C32.8839 123.789 32.7312 123.807 32.5787 123.843C32.1375 123.955 31.7817 124.148 31.6427 124.569C31.5131 124.987 31.5901 125.659 32.1531 126.604C32.7057 127.559 33.9328 128.396 34.9593 128.707C35.7145 128.955 36.3375 128.983 36.6156 128.983C36.6969 128.983 36.7489 128.981 36.7667 128.981C36.7719 128.981 36.7745 128.981 36.7745 128.981C36.7724 128.969 36.4364 128.298 36.1391 127.522C35.8192 126.723 35.5979 125.869 35.1833 125.259ZM33.2011 111.757C33.1973 111.771 33.1479 112.517 33.0109 113.336C32.8844 114.186 32.6421 115.034 32.6907 115.772C32.7593 117.221 33.324 118.033 34.2197 118.31C34.4011 118.362 34.5765 118.396 34.7432 118.396C34.9812 118.396 35.2011 118.33 35.3948 118.156C35.7192 117.864 35.9932 117.245 35.9855 116.143C35.9932 115.041 35.3568 113.698 34.6287 112.91C33.9145 112.101 33.2047 111.765 33.2011 111.757V111.757ZM63.474 104.151C63.4885 104.153 63.5031 104.153 63.5172 104.153C63.9547 104.153 64.3333 104.053 64.5661 103.694C64.8021 103.325 64.9025 102.656 64.6031 101.595C64.3197 100.53 63.3521 99.4025 62.4412 98.8358C61.538 98.242 60.764 98.1081 60.7583 98.1004C60.7583 98.1134 60.9079 98.8462 60.9932 99.6744C61.0964 100.527 61.0864 101.409 61.3281 102.109C61.7771 103.488 62.5359 104.121 63.474 104.151V104.151ZM23.1568 92.878C22.8989 92.6638 22.6297 92.5154 22.3369 92.5154C22.2448 92.5154 22.1511 92.5305 22.0541 92.5618C21.6531 92.6977 21.1729 93.143 20.7541 94.1238C20.3229 95.1004 20.3724 96.5378 20.7145 97.5181C21.0427 98.5233 21.5464 99.0936 21.5391 99.0936C21.5437 99.0936 21.8755 98.4452 22.3183 97.7644C22.7573 97.0572 23.2989 96.3957 23.5396 95.7238C24.0369 94.4077 23.8479 93.4701 23.1568 92.878V92.878ZM45.5901 112.165C46.2869 112.838 46.9412 113.086 46.9328 113.088C46.9369 113.088 46.9276 112.419 46.9937 111.677C47.0453 110.914 47.2011 110.146 47.1073 109.499C46.9443 108.22 46.3891 107.541 45.5749 107.358C45.4473 107.332 45.3235 107.317 45.2025 107.317C44.9563 107.317 44.7307 107.385 44.5473 107.575C44.2803 107.858 44.0823 108.426 44.1645 109.4C44.2344 110.375 44.8916 111.518 45.5901 112.165ZM40.8609 117.31C41.0932 117.474 41.3292 117.587 41.576 117.587C41.6797 117.587 41.7844 117.569 41.8912 117.523C42.2479 117.374 42.6579 116.934 42.974 116.008C43.3011 115.086 43.1599 113.772 42.7787 112.9C42.4172 112.014 41.9188 111.526 41.9183 111.517C41.9115 111.527 41.6525 112.138 41.2979 112.785C40.9443 113.461 40.4948 114.101 40.3183 114.734C39.9525 115.971 40.1901 116.815 40.8609 117.31V117.31ZM49.4369 113.664C48.3219 114.267 47.7489 114.991 47.738 114.991C47.7489 115 48.5916 115.254 49.4937 115.632C50.4349 116.001 51.3401 116.504 52.1959 116.645C52.5557 116.71 52.8891 116.742 53.1959 116.742C54.3125 116.742 55.0708 116.318 55.5063 115.568C55.7661 115.103 55.8907 114.641 55.6427 114.185C55.3937 113.737 54.7583 113.258 53.4953 112.973C53.1901 112.898 52.8599 112.866 52.5172 112.866C51.4473 112.866 50.2683 113.194 49.4369 113.664V113.664ZM54.0688 110.474C54.6781 111.08 55.2197 111.776 55.8427 112.174C56.5131 112.619 57.1151 112.825 57.6473 112.825C58.0749 112.825 58.4588 112.691 58.7937 112.443C59.1552 112.165 59.4063 111.845 59.3661 111.405C59.3213 110.97 58.9855 110.383 58.0916 109.737C57.3416 109.179 56.1755 108.891 55.188 108.891C55.0131 108.891 54.8427 108.898 54.6812 108.918C53.6125 109.014 52.9235 109.387 52.9073 109.387C52.9167 109.397 53.4896 109.879 54.0688 110.474V110.474ZM64.3672 123.327C63.7557 122.721 63.214 122.023 62.5921 121.628C61.9213 121.182 61.3208 120.976 60.7869 120.976C60.3588 120.976 59.976 121.111 59.6396 121.359C59.2797 121.638 59.0276 121.957 59.0697 122.397C59.1131 122.832 59.4511 123.419 60.3432 124.064C61.0948 124.624 62.2609 124.91 63.2479 124.91C63.4224 124.91 63.5921 124.901 63.7531 124.883C64.8229 124.785 65.512 124.415 65.5271 124.415C65.5213 124.403 64.9484 123.923 64.3672 123.327ZM121.699 107.667C121.486 107.59 121.269 107.551 121.05 107.551C120.363 107.551 119.655 107.939 118.957 108.791C118.478 109.351 118.166 110.179 117.761 110.936C117.382 111.677 116.976 112.307 116.973 112.32C116.973 112.32 116.974 112.32 116.975 112.32C116.995 112.32 117.248 112.366 117.653 112.366C117.962 112.366 118.359 112.338 118.807 112.244C119.862 112.043 121.173 111.345 121.825 110.457C122.486 109.577 122.636 108.918 122.551 108.488C122.459 108.055 122.125 107.824 121.699 107.667V107.667ZM80.3703 125.945C81.3588 126.604 82.2063 126.759 82.2099 126.768C82.2125 126.754 82.0531 125.948 81.9692 125.038C81.8625 124.099 81.8812 123.13 81.6203 122.363C81.1385 120.845 80.3131 120.142 79.2807 120.101C79.2583 120.101 79.2359 120.101 79.214 120.101C78.7448 120.101 78.3364 120.211 78.0797 120.596C77.8192 120.997 77.7011 121.732 78.0203 122.898C78.3219 124.069 79.376 125.314 80.3703 125.945V125.945ZM53.5964 102.832C53.6068 102.83 54.1364 102.461 54.7645 102.111C55.4052 101.739 56.1073 101.447 56.5771 101.018C57.5172 100.193 57.762 99.378 57.4651 98.6222C57.3156 98.2602 57.1068 97.979 56.7312 97.9138C56.6817 97.905 56.6281 97.9009 56.5697 97.9009C56.2025 97.9009 55.6937 98.0821 55.0563 98.5977C54.3093 99.1862 53.7469 100.336 53.6057 101.249C53.4459 102.168 53.6025 102.828 53.5964 102.832ZM126.927 109.891C126.697 109.72 126.452 109.651 126.195 109.651C125.94 109.651 125.673 109.72 125.402 109.827C124.277 110.284 123.646 111.391 123.72 113.263C123.741 114.213 124.149 115.277 124.407 116.357C124.678 117.398 124.825 118.351 124.832 118.366C124.832 118.356 125.707 117.846 126.536 116.721C127.382 115.625 128.049 113.827 127.914 112.411C127.799 110.996 127.375 110.231 126.927 109.891ZM31.7749 118.376C31.7797 117.835 31.4453 117.062 30.4339 116.143C29.4364 115.211 27.6787 114.663 26.3469 114.663H26.3443C26.2932 114.661 26.2448 114.66 26.1959 114.66C24.9473 114.66 24.1131 114.995 24.0916 114.995H24.0907C24.0964 115.008 24.7375 115.681 25.3703 116.499C26.0407 117.328 26.6131 118.262 27.3245 118.837C28.1973 119.57 29.0041 119.906 29.7355 119.906C30.1583 119.906 30.5579 119.793 30.9281 119.577C31.4099 119.284 31.7645 118.926 31.7749 118.376V118.376ZM40.9776 91.4165C39.8344 90.5405 38.8192 90.2837 38.8156 90.2744C38.8125 90.2905 38.9401 91.2801 38.9703 92.3894C39.0213 93.5326 38.924 94.7072 39.1765 95.655C39.6391 97.5337 40.5833 98.4477 41.8292 98.5805C41.9297 98.5884 42.0287 98.5952 42.1255 98.5952C42.6057 98.5952 43.0265 98.4701 43.324 98.0796C43.6713 97.6134 43.8708 96.7342 43.5792 95.2957C43.3073 93.8529 42.1312 92.2624 40.9776 91.4165ZM38.264 57.1686C37.7063 56.9878 37.2249 57.317 36.7297 57.5129C36.2735 57.6936 35.7511 57.7832 35.4489 58.1952C34.9099 58.1858 34.3443 58.078 33.8885 58.4529C33.8656 58.4712 33.8448 58.4936 33.8229 58.5129C33.5167 58.0446 32.9505 57.9097 32.4625 57.6816C31.9297 57.431 31.4224 57.0358 30.7932 57.1962C29.5979 57.5025 28.4651 58.843 27.9156 60.1525C27.0609 62.1858 27.6729 64.1842 29.1016 64.8534C30.2912 65.4113 31.826 64.9394 32.8937 63.6353C33.3792 64.9206 34.4047 65.7405 35.524 65.7405C36.4573 65.7405 37.326 65.1701 37.8703 64.2353C38.3776 64.3744 38.8943 64.3638 39.3656 64.1769C40.6921 63.6525 41.3552 61.8821 40.6973 59.9982C40.2745 58.7853 39.3271 57.5118 38.264 57.1686ZM27.6916 82.9102C27.0031 83.7805 26.1864 84.5748 25.7683 85.431C24.9131 87.0962 25.0188 88.367 25.8469 89.2534C26.1916 89.6108 26.5625 89.8634 27.0073 89.8634C27.0891 89.8634 27.1724 89.8556 27.2583 89.8378C27.8088 89.7176 28.5145 89.202 29.2156 87.9644C29.9317 86.7384 30.0839 84.8264 29.7771 83.4748C29.4979 82.1066 28.9177 81.2758 28.9235 81.267C28.9115 81.2758 28.3745 82.0805 27.6916 82.9102V82.9102ZM31.8531 89.5842C30.9932 90.5592 30.8516 91.4321 31.2573 92.1712C31.4588 92.5248 31.7115 92.7858 32.1073 92.8034C32.1177 92.804 32.1292 92.804 32.1407 92.804C32.5287 92.804 33.0787 92.5701 33.7412 91.8758C34.4328 91.1728 34.8604 89.9113 34.8833 88.9504C34.9276 87.9837 34.6803 87.3238 34.6839 87.3186C34.674 87.3217 34.1765 87.7728 33.5765 88.216C32.9651 88.6821 32.2792 89.0801 31.8531 89.5842V89.5842ZM40.8713 104.7C40.7255 104.651 40.5525 104.621 40.3505 104.621C39.8672 104.621 39.2219 104.791 38.4047 105.247C37.2385 105.88 36.1916 107.331 35.7828 108.557C35.3421 109.789 35.4031 110.733 35.3948 110.733C35.4083 110.733 36.2255 110.35 37.1735 110.018C38.1427 109.658 39.1797 109.418 39.9287 108.94C41.4183 108.026 41.9464 106.958 41.7172 105.849C41.5964 105.315 41.3755 104.88 40.8713 104.7ZM45.4692 66.931C45.3787 66.9034 45.274 66.8878 45.1552 66.8878C44.8079 66.8878 44.3369 67.0217 43.7401 67.3889C42.9333 67.8686 42.2349 68.9238 41.9807 69.8009C41.7063 70.6785 41.774 71.3436 41.7692 71.3504C41.7817 71.3462 42.3464 71.054 43.0047 70.7925C43.6803 70.5102 44.4052 70.3134 44.9213 69.9529C45.9469 69.2644 46.2901 68.4962 46.0979 67.7196C45.9979 67.3452 45.8292 67.0425 45.4692 66.931V66.931ZM47.7292 70.2457C47.6667 70.2457 47.6021 70.2514 47.5339 70.2644C47.064 70.3577 46.4557 70.7862 45.8369 71.828C45.2088 72.8608 45.0489 74.4884 45.2896 75.6425C45.5063 76.8124 45.9859 77.5301 45.9803 77.5378C45.9927 77.5301 46.4615 76.8525 47.0557 76.1561C47.6568 75.4264 48.3651 74.7638 48.7344 74.0405C49.488 72.6362 49.4172 71.552 48.7271 70.7848C48.4349 70.4696 48.1172 70.2457 47.7292 70.2457V70.2457ZM57.8692 93.2858C58.6104 94.3425 59.4063 94.8217 60.2115 94.8217C60.3995 94.8217 60.5896 94.7957 60.7787 94.7446C61.2557 94.6056 61.6407 94.379 61.7765 93.9138C61.9047 93.4529 61.7973 92.716 61.1448 91.6988C60.5063 90.6717 59.1281 89.7988 57.9912 89.4914C57.2776 89.2848 56.676 89.2472 56.3245 89.2472C56.1333 89.2472 56.0167 89.2586 55.9937 89.2586C55.9916 89.2586 55.9907 89.2586 55.9896 89.2586C55.9916 89.2728 56.3844 89.9936 56.738 90.8373C57.1188 91.7014 57.3921 92.6301 57.8692 93.2858V93.2858ZM50.8115 95.1342C49.7531 95.2566 48.5369 96.0285 47.8656 96.8228C47.1697 97.6092 46.9317 98.3321 46.9249 98.3321C46.9249 98.3321 46.9265 98.3321 46.9303 98.3321C46.9781 98.3321 47.3197 98.3138 47.7776 98.3138C47.9885 98.3138 48.2229 98.3165 48.4651 98.328C49.0249 98.3425 49.5891 98.4061 50.112 98.4061C50.3677 98.4061 50.6136 98.3894 50.8453 98.3462C52.2328 98.1081 52.9437 97.4701 53.1031 96.5728C53.1745 96.1394 53.1385 95.7472 52.8161 95.4634C52.5697 95.2514 52.1407 95.0884 51.4688 95.0884C51.2713 95.0884 51.0531 95.104 50.8115 95.1342V95.1342ZM27.0213 121.284C26.7615 121.179 26.4401 121.114 26.0536 121.114C25.3473 121.114 24.4213 121.33 23.2583 121.893C21.4443 122.745 19.7432 124.843 19.0197 126.653C18.2516 128.465 18.2588 129.893 18.2479 129.896C18.2719 129.896 19.5339 129.389 20.9885 128.974C22.4803 128.514 24.0636 128.244 25.2312 127.588C27.5557 126.338 28.4437 124.777 28.1932 123.088C28.0573 122.273 27.7615 121.599 27.0213 121.284V121.284ZM30.0303 97.6405C30.326 98.1144 30.4984 98.6577 30.7229 99.1796L30.7803 99.1561C30.5812 98.6301 30.4317 98.0769 30.1473 97.5717C29.8724 97.0649 29.4328 96.6316 28.8943 96.3894L28.8661 96.392C28.2568 96.6212 27.7437 97.0665 27.4052 97.604C27.0563 98.1405 26.8525 98.741 26.5964 99.3072L26.6521 99.3348C26.9333 98.7733 27.1599 98.1848 27.5183 97.681C27.8416 97.2097 28.2921 96.84 28.8156 96.6353C29.1855 97.0196 29.424 97.5206 29.512 98.0572C29.6177 98.6368 29.5745 99.2358 29.5907 99.8332L29.6531 99.8321C29.6604 99.241 29.7303 98.6405 29.6464 98.0362C29.5921 97.59 29.4333 97.1457 29.1776 96.767C29.5224 96.9816 29.8145 97.2837 30.0303 97.6405V97.6405ZM24.8755 99.0457C23.6787 99.3514 22.5473 100.693 21.9979 102.003C21.1427 104.035 21.7547 106.034 23.1828 106.703C24.3735 107.26 25.9073 106.789 26.9749 105.486C27.4604 106.77 28.4864 107.59 29.6057 107.59C30.5391 107.59 31.4073 107.02 31.9521 106.085C32.4593 106.224 32.976 106.213 33.4469 106.027C34.774 105.501 35.438 103.732 34.7797 101.848C34.3557 100.635 33.4083 99.3618 32.3453 99.0181C31.7875 98.8373 31.3073 99.1654 30.8115 99.3618C30.3552 99.543 29.8333 99.6326 29.5307 100.046C28.9912 100.035 28.426 99.9269 27.9697 100.302C27.9473 100.322 27.9265 100.344 27.9047 100.362C27.5979 99.8946 27.0328 99.7592 26.5437 99.531C26.0109 99.2801 25.5036 98.8842 24.8755 99.0457V99.0457ZM21.6385 86.8509C21.8552 86.94 22.0661 86.9968 22.2697 86.9968C22.462 86.9968 22.6479 86.9452 22.8219 86.8201C23.1755 86.5608 23.5099 85.9738 23.6161 84.8764C23.738 83.7805 23.2427 82.3796 22.5995 81.5206C21.9703 80.643 21.2984 80.2358 21.2973 80.2274C21.2921 80.2389 21.1672 80.9764 20.9459 81.7796C20.7328 82.6108 20.4041 83.4316 20.3771 84.1692C20.2964 85.6186 20.7745 86.4832 21.6385 86.8509V86.8509ZM20.0969 90.7649C20.0161 90.1733 19.8167 89.6769 19.2891 89.4358C19.0864 89.3457 18.8303 89.291 18.5151 89.291C18.0145 89.291 17.3661 89.431 16.5552 89.7952C15.2276 90.3706 13.9526 91.8488 13.3916 93.1414C12.7953 94.4373 12.7719 95.4701 12.7625 95.4701C12.7807 95.4701 13.7036 95.1316 14.7625 94.8618C15.8521 94.5624 17 94.4009 17.8588 93.952C19.5661 93.1004 20.2407 91.992 20.0969 90.7649ZM28.1697 45.0185C29.1473 45.7878 30.0427 46.1438 30.8473 46.1438C31.3557 46.1438 31.8303 46.0012 32.264 45.7305C32.8005 45.3838 33.1864 44.9678 33.1812 44.3478C33.1683 43.7345 32.7645 42.8758 31.5921 41.8705C30.4771 40.8878 28.574 40.3318 27.0932 40.3318C27.0355 40.3318 26.9792 40.3332 26.9224 40.3345C25.4167 40.3478 24.4115 40.7852 24.3896 40.7852C24.3959 40.7985 25.1427 41.5385 25.8839 42.4412C26.6683 43.3559 27.3448 44.3932 28.1697 45.0185V45.0185ZM34.8115 54.54L34.7844 54.5414C34.1755 54.7706 33.6615 55.217 33.324 55.755C32.9745 56.2905 32.7713 56.8914 32.514 57.4572L32.5697 57.4853C32.8516 56.9233 33.0787 56.3353 33.4355 55.8316C33.7599 55.3608 34.2104 54.9905 34.7333 54.7853C35.1031 55.1701 35.3421 55.6717 35.4307 56.2081C35.5355 56.7873 35.4927 57.3862 35.5093 57.9842L35.5713 57.9832C35.5792 57.3914 35.6479 56.791 35.564 56.1868C35.5109 55.7405 35.3516 55.2968 35.0953 54.9176C35.4407 55.1321 35.7333 55.4342 35.9484 55.791C36.2437 56.2649 36.4172 56.8086 36.6407 57.3305L36.6984 57.3066C36.5 56.7805 36.35 56.2274 36.0656 55.7228C35.7901 55.216 35.3505 54.7821 34.8115 54.54V54.54ZM14.8578 87.8982C16.1833 87.8982 17.1511 87.3972 17.7912 86.4993C18.224 85.8665 18.4593 85.2253 18.1672 84.5405C17.8677 83.8681 17.0224 83.1014 15.2593 82.5301C14.6193 82.3134 13.8833 82.216 13.1265 82.216C11.8036 82.216 10.4182 82.5124 9.3703 82.9868C7.69582 83.702 6.78436 84.6597 6.76978 84.6597C6.78019 84.6728 7.95207 85.1452 9.19425 85.8034C10.4864 86.455 11.7177 87.291 12.9203 87.6029C13.6359 87.8034 14.2807 87.8982 14.8578 87.8982V87.8982ZM75.7568 124.629C75.762 124.629 75.8505 123.992 76.0219 123.301C76.1833 122.588 76.4421 121.882 76.4489 121.255C76.4844 120.021 76.0579 119.296 75.3125 119.004C75.1364 118.937 74.9631 118.895 74.7979 118.895C74.626 118.895 74.4614 118.943 74.3073 119.057C74.013 119.285 73.7416 119.795 73.6781 120.728C73.6 121.663 74.0552 122.843 74.6208 123.559C75.1803 124.297 75.7661 124.628 75.7568 124.629V124.629ZM140.457 93.179C140.435 93.179 140.412 93.1796 140.389 93.181C139.837 93.2154 139.492 93.5873 139.217 94.0848C138.672 95.1222 138.891 96.3373 140.115 97.6769C140.723 98.366 141.687 98.9034 142.549 99.5405C143.401 100.143 144.105 100.76 144.117 100.763C144.111 100.759 144.44 99.8348 144.355 98.4842C144.297 97.1446 143.672 95.3982 142.691 94.4337C141.761 93.4962 140.997 93.179 140.457 93.179ZM133.165 92.0753C133.459 92.5488 133.633 93.0925 133.857 93.6144L133.914 93.59C133.715 93.0644 133.566 92.5102 133.281 92.0066C133.006 91.4993 132.567 91.0665 132.028 90.8228L132.001 90.8253C131.392 91.0545 130.878 91.5009 130.54 92.0389C130.191 92.5744 129.986 93.1753 129.73 93.741L129.786 93.7681C130.067 93.2072 130.294 92.6192 130.652 92.1154C130.975 91.6441 131.427 91.2744 131.949 91.0696C132.319 91.4545 132.558 91.955 132.646 92.492C132.752 93.0712 132.708 93.6692 132.725 94.2681L132.787 94.267C132.795 93.6744 132.864 93.0748 132.78 92.4706C132.725 92.0244 132.568 91.5805 132.31 91.2014C132.657 91.4165 132.949 91.7181 133.165 92.0753V92.0753ZM150.205 95.4581C150.208 95.4634 149.476 95.7029 148.681 96.4034C147.877 97.0805 147.096 98.3061 146.968 99.3748C146.828 100.443 147.019 101.077 147.296 101.4C147.505 101.639 147.775 101.723 148.077 101.723C148.187 101.723 148.301 101.711 148.416 101.693C149.323 101.533 149.968 100.817 150.213 99.4165C150.348 98.7081 150.217 97.854 150.199 97.0144C150.165 96.1993 150.209 95.466 150.205 95.4581ZM154.508 97.9884C153.705 98.1405 152.704 98.6733 152.208 99.3504C151.705 100.022 151.592 100.525 151.656 100.853C151.725 101.181 151.98 101.358 152.305 101.479C152.467 101.536 152.632 101.567 152.799 101.567C153.324 101.567 153.863 101.271 154.395 100.62C154.759 100.193 154.997 99.5624 155.305 98.9832C155.596 98.4138 155.911 97.931 155.905 97.931C155.907 97.931 155.905 97.931 155.905 97.931C155.892 97.931 155.7 97.8946 155.391 97.8946C155.155 97.8946 154.851 97.9154 154.508 97.9884ZM139.324 87.6138C139.324 87.6086 139.893 87.3998 140.503 86.8217C141.116 86.2649 141.699 85.2748 141.768 84.4258C141.848 83.578 141.68 83.0832 141.451 82.8358C141.289 82.6649 141.091 82.6025 140.871 82.6025C140.769 82.6025 140.665 82.616 140.556 82.6368C139.848 82.7884 139.356 83.3744 139.205 84.4862C139.117 85.0509 139.245 85.7212 139.284 86.3842C139.335 87.0269 139.321 87.6066 139.324 87.6138V87.6138ZM128.009 93.4805C126.814 93.7862 125.681 95.128 125.132 96.4362C124.277 98.4701 124.889 100.468 126.317 101.137C127.507 101.695 129.042 101.224 130.11 99.9192C130.595 101.205 131.62 102.025 132.74 102.025C133.673 102.025 134.541 101.453 135.087 100.52C135.593 100.659 136.111 100.647 136.581 100.461C137.909 99.9362 138.572 98.1665 137.913 96.2826C137.491 95.0701 136.543 93.7957 135.48 93.452C134.921 93.2717 134.441 93.6004 133.946 93.7968C133.489 93.978 132.967 94.0676 132.665 94.479C132.126 94.4701 131.56 94.3618 131.104 94.7368C131.082 94.7566 131.061 94.7774 131.038 94.7968C130.732 94.328 130.166 94.1941 129.678 93.9649C129.145 93.7149 128.637 93.3196 128.009 93.4805ZM157.373 97.642C157.364 97.642 157.929 97.017 158.3 95.9102C158.692 94.8305 158.763 93.2414 158.299 92.1581C157.845 91.0686 157.319 90.5722 156.877 90.4165C156.768 90.3796 156.66 90.3629 156.556 90.3629C156.236 90.3629 155.941 90.5228 155.656 90.7525C154.884 91.4009 154.665 92.4337 155.2 93.8946C155.46 94.6405 156.049 95.3764 156.527 96.1629C157.009 96.9206 157.367 97.642 157.373 97.642V97.642ZM166.756 105.439C166.729 105.437 166.705 105.436 166.681 105.436C166.195 105.436 165.844 105.738 165.541 106.153C164.901 107.07 164.965 108.245 165.963 109.655C166.456 110.38 167.304 111.003 168.044 111.707C168.777 112.379 169.373 113.049 169.38 113.049C169.372 113.049 169.796 112.213 169.876 110.922C169.981 109.648 169.596 107.923 168.783 106.896C167.984 105.857 167.273 105.476 166.756 105.439V105.439ZM158.745 107.46C158.125 106.882 157.624 106.684 157.267 106.684C157.239 106.684 157.212 106.685 157.187 106.687C156.821 106.724 156.601 106.979 156.432 107.317C156.097 108.02 156.272 108.819 157.119 109.676C157.54 110.12 158.192 110.449 158.781 110.851C159.359 111.228 159.844 111.62 159.852 111.621C159.848 111.619 160.043 110.997 159.951 110.103C159.88 109.218 159.42 108.074 158.745 107.46V107.46ZM94.0839 97.8764C93.3631 97.4102 92.2921 97.0638 91.3484 97.0638C91.1511 97.0638 90.9588 97.0796 90.7771 97.1118C89.7249 97.2862 89.1787 97.6498 88.9505 98.0066C88.7255 98.3696 88.8052 98.7566 88.9969 99.1534C89.3469 99.841 90.0213 100.236 91.0683 100.236C91.2563 100.236 91.4593 100.223 91.6719 100.195C92.3817 100.122 93.1525 99.7525 93.9437 99.492C94.7099 99.2238 95.4197 99.0545 95.4197 99.0482C95.4104 99.0482 94.9745 98.4269 94.0839 97.8764V97.8764ZM177.345 104.93C178.303 106.104 178.605 107.164 178.616 107.167C178.616 107.167 178.615 107.167 178.612 107.167C178.549 107.167 177.564 107.073 176.452 107.073H176.387C176.304 107.07 176.223 107.07 176.14 107.07C175.584 107.07 175.025 107.096 174.489 107.096C173.943 107.096 173.417 107.069 172.944 106.958C170.955 106.533 169.96 105.568 169.781 104.26C169.707 103.628 169.78 103.065 170.261 102.673C170.601 102.403 171.161 102.206 172 102.206C172.345 102.206 172.739 102.239 173.181 102.315C174.708 102.556 176.42 103.744 177.345 104.93V104.93ZM123.819 94.091C123.393 92.9165 122.348 91.5389 121.204 90.9577C120.433 90.552 119.823 90.4009 119.361 90.4009C119.144 90.4009 118.96 90.4342 118.807 90.4905C118.327 90.6758 118.123 91.1029 118.02 91.6217C117.825 92.6993 118.364 93.7149 119.825 94.5624C120.56 95.0066 121.566 95.2113 122.513 95.5378C123.435 95.8332 124.232 96.1821 124.249 96.1821C124.24 96.1821 124.275 95.2681 123.819 94.091V94.091ZM70.5667 102.488C71.1916 102.223 71.864 102.038 72.3396 101.703C73.288 101.062 73.6031 100.348 73.4219 99.628C73.3281 99.2826 73.1688 99.0025 72.8344 98.8982C72.7516 98.8764 72.6583 98.8608 72.55 98.8608C72.2271 98.8608 71.7907 98.9868 71.2375 99.328C70.4912 99.7758 69.8479 100.757 69.6156 101.57C69.3631 102.389 69.4286 103.007 69.4245 103.007C69.4328 103.007 69.9563 102.732 70.5667 102.488V102.488ZM138.577 108.245C138.329 108.16 138.08 108.117 137.827 108.117C137.001 108.117 136.156 108.586 135.328 109.62C134.767 110.295 134.406 111.281 133.933 112.187C133.488 113.082 133.008 113.843 133.014 113.844C133.014 113.844 133.014 113.844 133.015 113.844C133.037 113.844 133.311 113.891 133.754 113.891C134.131 113.891 134.628 113.857 135.196 113.729C136.447 113.479 137.999 112.632 138.761 111.567C139.537 110.51 139.707 109.723 139.6 109.213C139.485 108.699 139.085 108.429 138.577 108.245ZM150.073 108.051C150.368 108.523 150.541 109.068 150.765 109.59L150.823 109.565C150.624 109.039 150.475 108.486 150.191 107.982C149.915 107.475 149.476 107.041 148.937 106.798L148.909 106.801C148.3 107.03 147.787 107.476 147.448 108.014C147.1 108.549 146.896 109.15 146.639 109.716L146.695 109.744C146.976 109.182 147.203 108.594 147.56 108.09C147.884 107.619 148.335 107.249 148.859 107.045C149.228 107.43 149.467 107.931 149.555 108.468C149.66 109.046 149.617 109.645 149.633 110.242H149.696C149.704 109.65 149.772 109.049 149.689 108.447C149.636 107.999 149.476 107.556 149.22 107.176C149.565 107.391 149.857 107.693 150.073 108.051V108.051ZM152.389 109.427C151.829 109.246 151.351 109.575 150.855 109.772C150.399 109.952 149.876 110.041 149.573 110.455C149.035 110.444 148.469 110.337 148.013 110.712C147.991 110.731 147.969 110.753 147.948 110.772C147.641 110.303 147.075 110.168 146.588 109.94C146.053 109.69 145.547 109.295 144.919 109.456C143.721 109.762 142.591 111.101 142.041 112.411C141.187 114.444 141.797 116.443 143.225 117.112C144.416 117.671 145.951 117.198 147.019 115.895C147.504 117.18 148.529 117.999 149.648 117.999C150.581 117.999 151.451 117.429 151.995 116.495C152.501 116.634 153.02 116.622 153.491 116.436C154.817 115.911 155.481 114.142 154.823 112.257C154.399 111.045 153.452 109.771 152.389 109.427V109.427ZM119.616 96.3373C119.172 96.3373 118.736 96.3982 118.367 96.5378C117.465 96.8618 117.04 97.2733 116.896 97.6264C116.755 97.9842 116.889 98.3138 117.124 98.6342C117.456 99.0692 117.936 99.3113 118.579 99.3113C118.899 99.3113 119.26 99.2498 119.663 99.1238C120.282 98.9425 120.904 98.4894 121.563 98.1316C122.197 97.767 122.799 97.5025 122.798 97.4988C122.789 97.4972 122.302 97.0181 121.423 96.6769C120.913 96.4649 120.256 96.3373 119.616 96.3373V96.3373ZM75.6703 95.431C75.8505 95.431 76.0297 95.4025 76.2073 95.3462C76.6025 95.2149 76.9156 95.0129 77.012 94.6196C77.1052 94.2305 76.9907 93.6212 76.4131 92.7925C75.8469 91.9592 74.6688 91.2769 73.7109 91.0592C73.2156 90.9362 72.788 90.9061 72.4885 90.9061C72.2188 90.9061 72.053 90.931 72.0358 90.931H72.0344C72.0369 90.9414 72.3874 91.5305 72.7088 92.2222C73.0557 92.9305 73.3156 93.6952 73.7349 94.2264C74.3656 95.0545 75.0213 95.431 75.6703 95.431V95.431ZM80.2057 78.8581C80.4697 78.2858 80.8167 77.7358 80.9355 77.2072C81.1864 76.1706 80.9573 75.4816 80.3797 75.0988C80.1937 74.9801 80.0052 74.8993 79.8125 74.8993C79.7156 74.8993 79.6188 74.9192 79.5203 74.9654C79.2323 75.1056 78.9115 75.4853 78.688 76.2629C78.4547 77.0378 78.6245 78.116 78.9755 78.8238C79.314 79.5488 79.7489 79.9321 79.7416 79.9321C79.7464 79.9321 79.9364 79.4129 80.2057 78.8581V78.8581ZM69.8505 89.5957C70.1355 88.981 70.5082 88.3905 70.6354 87.8228C70.9046 86.7102 70.6579 85.9706 70.0396 85.5608C69.8391 85.4321 69.6359 85.3452 69.4287 85.3452C69.3249 85.3452 69.2219 85.367 69.1172 85.416C68.8073 85.5665 68.462 85.9738 68.2219 86.8092C67.9719 87.6414 68.1547 88.7988 68.5307 89.5566C68.8948 90.3368 69.3631 90.7488 69.3552 90.7488C69.3583 90.7488 69.5625 90.1914 69.8505 89.5957V89.5957ZM123.585 58.2181C123.435 58.0988 123.269 58.0509 123.095 58.0509C122.942 58.0509 122.781 58.0878 122.616 58.1452C121.892 58.4124 121.467 59.1025 121.475 60.2952C121.467 60.8998 121.704 61.5848 121.845 62.2769C121.998 62.9488 122.07 63.5634 122.073 63.5634C122.067 63.5618 122.636 63.2561 123.192 62.5534C123.754 61.8748 124.215 60.7446 124.16 59.843C124.116 58.94 123.864 58.4446 123.585 58.2181V58.2181ZM79.0375 105.731C80.3479 104.538 80.676 103.376 80.238 102.315C80.0167 101.806 79.7151 101.414 79.1817 101.33C79.1183 101.319 79.0505 101.315 78.9792 101.315C78.4579 101.315 77.7323 101.578 76.8249 102.338C75.7823 103.187 75.0131 104.831 74.8349 106.129C74.6287 107.436 74.865 108.366 74.8573 108.37C74.8713 108.367 75.6125 107.832 76.4948 107.323C77.3948 106.78 78.3817 106.348 79.0375 105.731ZM82.4979 109.685C82.9328 108.996 83.4656 108.354 83.7047 107.698C84.1995 106.417 84.0192 105.499 83.3473 104.915C83.0948 104.703 82.8323 104.556 82.5448 104.556C82.4568 104.556 82.3672 104.569 82.2735 104.6C81.8812 104.731 81.4073 105.161 80.9927 106.119C80.5656 107.07 80.6052 108.475 80.9328 109.436C81.2432 110.41 81.7303 110.973 81.7281 110.981C81.7375 110.971 82.0645 110.344 82.4979 109.685V109.685ZM67.3547 84.1581C67.2312 83.6894 67.0203 83.3086 66.5692 83.1649C66.4521 83.1296 66.3192 83.1092 66.1683 83.1092C65.7307 83.1092 65.1427 83.2758 64.3937 83.729C63.3787 84.328 62.4953 85.6509 62.1708 86.752C61.8197 87.8586 61.9031 88.6972 61.8948 88.6972C61.9079 88.6972 62.6213 88.3301 63.4525 88.0061C64.3025 87.6534 65.2156 87.4102 65.8651 86.9602C67.1593 86.1004 67.5932 85.1353 67.3547 84.1581V84.1581ZM64.3578 89.1066C64.3536 89.1066 64.2948 89.7446 64.1563 90.4452C64.0271 91.1649 63.801 91.8816 63.8245 92.5077C63.8464 93.7436 64.3062 94.4477 65.0636 94.7045C65.226 94.7566 65.3859 94.7905 65.5369 94.7905C65.726 94.7905 65.9041 94.7384 66.064 94.6029C66.3479 94.3634 66.5964 93.8425 66.6161 92.9056C66.6511 91.9686 66.1416 90.8118 65.5432 90.1238C64.9495 89.4102 64.3484 89.1086 64.3578 89.1066V89.1066ZM108.941 78.7873C109.627 79.2681 110.196 79.7613 110.209 79.7649C110.203 79.7592 110.464 79.0129 110.389 77.929C110.337 76.8509 109.825 75.4472 109.03 74.6753C108.284 73.9296 107.67 73.6758 107.235 73.6758C107.213 73.6758 107.192 73.6764 107.172 73.678C106.728 73.7077 106.451 74.0077 106.234 74.4097C105.797 75.2482 105.98 76.2253 106.97 77.2977C107.465 77.8525 108.242 78.2785 108.941 78.7873V78.7873ZM96.8869 94.142C97.4505 93.2692 97.8349 91.8816 97.6459 90.8326C97.4677 89.781 97.1036 89.2353 96.7464 89.0092C96.5916 88.9138 96.4328 88.8733 96.2703 88.8733C96.0521 88.8733 95.8271 88.9468 95.6005 89.0572C94.7896 89.4722 94.3859 90.34 94.5615 91.7353C94.6391 92.4446 95.0098 93.2149 95.2713 94.005C95.5421 94.7706 95.7125 95.4805 95.7177 95.4805C95.7079 95.479 96.3339 95.043 96.8869 94.142V94.142ZM103.118 97.4545C103.467 98.6821 104.436 100.163 105.559 100.837C106.396 101.354 107.054 101.543 107.541 101.543C107.702 101.543 107.845 101.521 107.97 101.486C108.473 101.33 108.713 100.91 108.855 100.388C109.129 99.3034 108.657 98.228 107.226 97.2592C106.509 96.754 105.496 96.4728 104.554 96.0728C103.633 95.7045 102.844 95.2889 102.83 95.2889C102.839 95.2889 102.736 96.2201 103.118 97.4545V97.4545ZM110.321 88.5228H110.337C110.725 88.5228 110.991 88.2796 111.214 87.9441C111.666 87.2316 111.579 86.3488 110.781 85.3165C110.386 84.7858 109.726 84.3452 109.146 83.8358C108.57 83.355 108.098 82.8686 108.093 82.8686C108.098 82.8686 107.806 83.5113 107.79 84.4894C107.752 85.452 108.098 86.741 108.744 87.4894C109.38 88.2457 109.928 88.5102 110.321 88.5228V88.5228ZM114.803 70.7561C113.607 71.0618 112.475 72.4025 111.925 73.7118C111.07 75.7446 111.682 77.7436 113.11 78.4129C114.301 78.9701 115.835 78.4988 116.903 77.1946C117.389 78.4805 118.414 79.2993 119.533 79.2993C120.467 79.2993 121.334 78.729 121.879 77.7946C122.386 77.9342 122.903 77.9228 123.374 77.7362C124.701 77.2118 125.365 75.4414 124.707 73.5572C124.283 72.3452 123.336 71.0717 122.273 70.7274C121.715 70.5468 121.235 70.8758 120.739 71.0717C120.282 71.252 119.761 71.3425 119.458 71.7545C118.919 71.7446 118.354 71.6373 117.897 72.0124C117.875 72.0305 117.854 72.052 117.832 72.0722C117.525 71.6034 116.96 71.4686 116.472 71.2405C115.938 70.9905 115.431 70.5946 114.803 70.7561V70.7561ZM129.837 68.2509C130.071 67.0436 129.901 66.3081 129.607 65.9186C129.358 65.5972 129.009 65.493 128.61 65.493C128.527 65.493 128.44 65.4982 128.352 65.5066C127.309 65.6238 126.522 66.3957 126.146 67.9712C125.94 68.7676 126.028 69.7493 125.989 70.7077C125.97 71.6452 125.866 72.4801 125.872 72.4801C125.861 72.4758 126.714 72.2577 127.677 71.5113C128.637 70.7982 129.616 69.4581 129.837 68.2509V68.2509ZM105.395 90.7722C105.019 89.552 104.021 88.0925 102.884 87.441C102.06 86.9529 101.411 86.7733 100.929 86.7733C100.75 86.7733 100.594 86.7982 100.46 86.842C99.9598 87.0061 99.7302 87.4316 99.5994 87.9556C99.3453 89.0457 99.8416 90.1108 101.291 91.0509C102.019 91.541 103.036 91.8014 103.986 92.181C104.914 92.5326 105.713 92.931 105.725 92.931C105.717 92.931 105.801 91.9993 105.395 90.7722V90.7722ZM119.957 69.3509C120.253 69.8244 120.426 70.367 120.65 70.89L120.708 70.866C120.508 70.34 120.359 69.7858 120.074 69.281C119.799 68.7753 119.36 68.341 118.821 68.0982L118.793 68.1009C118.185 68.3301 117.671 68.7758 117.332 69.3144C116.983 69.8504 116.78 70.4504 116.522 71.0165L116.579 71.0436C116.86 70.4826 117.087 69.8941 117.445 69.3905C117.769 68.9192 118.22 68.5493 118.743 68.3441C119.113 68.729 119.352 69.231 119.44 69.7676C119.545 70.3462 119.502 70.9446 119.517 71.543L119.58 71.5425C119.589 70.9504 119.657 70.3504 119.573 69.7468C119.52 69.2993 119.361 68.8561 119.104 68.4764C119.449 68.692 119.743 68.9936 119.957 69.3509V69.3509ZM125.306 80.6769C125.509 81.2004 125.975 81.4217 126.538 81.5353C126.692 81.5618 126.844 81.5769 126.995 81.5769C127.997 81.5769 128.939 80.9556 129.743 79.5712C130.225 78.7706 130.449 77.6758 130.803 76.6446C131.127 75.6394 131.507 74.7692 131.507 74.755C131.505 74.7638 130.51 74.7264 129.23 75.2222C127.949 75.6842 126.451 76.8244 125.818 78.0665C125.167 79.302 125.114 80.1597 125.306 80.6769V80.6769ZM121.565 52.4525C121.725 52.5529 121.889 52.5952 122.054 52.5952C122.272 52.5952 122.496 52.5244 122.723 52.4154C123.548 52.0061 123.965 51.1326 123.803 49.7212C123.733 49.0025 123.366 48.2185 123.108 47.4185C122.846 46.6452 122.681 45.9319 122.673 45.9212C122.675 45.9292 122.04 46.3665 121.477 47.2612C120.899 48.1398 120.496 49.5358 120.675 50.6004C120.843 51.6649 121.205 52.2201 121.565 52.4525V52.4525ZM116.217 55.2124C117.294 56.3796 118.196 56.7701 118.83 56.7701C118.839 56.7701 118.847 56.7701 118.855 56.7696C119.501 56.752 119.92 56.3332 120.259 55.7644C120.942 54.5722 120.733 53.1452 119.362 51.5305C118.679 50.6968 117.575 50.0318 116.592 49.2505C115.624 48.5118 114.828 47.7638 114.811 47.7572C114.818 47.7665 114.396 48.8318 114.44 50.4113C114.451 51.9774 115.11 54.0446 116.217 55.2124V55.2124ZM55.8625 94.7342C56.1916 94.5613 56.4412 94.34 56.4703 93.978C56.4969 93.6212 56.3083 93.1004 55.6807 92.452C55.0615 91.7957 53.9249 91.3602 53.0489 91.3045C52.9115 91.2925 52.7817 91.2884 52.6579 91.2884C52.0005 91.2884 51.5667 91.429 51.5521 91.429C51.5511 91.429 51.5511 91.429 51.5511 91.429C51.5464 91.431 51.9443 91.9034 52.3297 92.4733C52.7364 93.0477 53.0745 93.6873 53.5188 94.0962C54.1016 94.6509 54.6521 94.9034 55.1615 94.9034C55.4052 94.9034 55.6391 94.8462 55.8625 94.7342V94.7342ZM114.114 58.828C114.437 58.8993 114.715 58.9296 114.952 58.9296C115.369 58.9296 115.661 58.8342 115.849 58.6998C116.144 58.4837 116.204 58.1509 116.178 57.7753C116.11 56.9993 115.553 56.4004 114.387 56.0925C113.799 55.9244 113.07 55.9728 112.359 55.9258C111.678 55.8968 111.072 55.8072 111.045 55.8072C111.045 55.8072 111.044 55.8072 111.044 55.8072C111.051 55.8072 111.197 56.4414 111.731 57.1654C112.243 57.892 113.221 58.6425 114.114 58.828V58.828ZM136.828 39.5252C136.244 39.5252 135.676 39.5998 135.183 39.7678C133.831 40.2078 133.185 40.7972 132.959 41.3118C132.735 41.8372 132.917 42.3292 133.248 42.8118C133.74 43.4972 134.478 43.8798 135.489 43.8798C135.933 43.8798 136.431 43.8052 136.981 43.6505C137.903 43.4105 138.843 42.7678 139.833 42.2652C140.783 41.7612 141.677 41.3972 141.689 41.3865C141.676 41.3865 140.976 40.6545 139.693 40.1105C138.895 39.7492 137.837 39.5252 136.828 39.5252V39.5252ZM107.204 63.5717C107.391 63.6868 107.582 63.7358 107.778 63.7358C108.042 63.7358 108.314 63.6457 108.59 63.5118C109.568 63.0097 110.056 61.9618 109.841 60.2744C109.746 59.416 109.296 58.4858 108.979 57.531C108.653 56.6092 108.444 55.7561 108.437 55.7482C108.442 55.754 107.689 56.2853 107.025 57.3681C106.346 58.4244 105.884 60.1014 106.115 61.3696C106.331 62.642 106.772 63.2993 107.204 63.5717V63.5717ZM125.998 39.2212C126.918 40.0852 127.662 40.3798 128.192 40.3798C128.231 40.3798 128.27 40.3772 128.306 40.3745C128.848 40.3212 129.177 39.9438 129.428 39.4452C129.93 38.4052 129.673 37.2185 128.423 35.9425C127.801 35.2825 126.834 34.7892 125.963 34.1905C125.105 33.6265 124.389 33.0425 124.379 33.0425C124.389 33.0425 124.093 33.9638 124.224 35.2932C124.325 36.6078 125.001 38.3052 125.998 39.2212V39.2212ZM132.177 36.8692C132.475 36.9452 132.774 36.9838 133.07 36.9838C134.42 36.9838 135.744 36.1758 136.959 34.3865C137.733 33.2932 138.164 31.7465 138.775 30.3092C139.34 28.9052 139.975 27.6998 139.976 27.6785C139.976 27.6785 139.973 27.6812 139.968 27.6812C139.933 27.6812 139.781 27.6692 139.536 27.6692C138.975 27.6692 137.925 27.7278 136.669 28.1132C134.795 28.6452 132.533 30.1212 131.498 31.8358C130.444 33.5345 130.282 34.7545 130.503 35.5158C130.739 36.2852 131.379 36.6478 132.177 36.8692V36.8692ZM100.463 45.9185C101.79 45.3932 102.453 43.6239 101.795 41.7385C101.371 40.5265 100.424 39.2518 99.3609 38.9092C98.8025 38.7292 98.3229 39.0585 97.8281 39.2545C97.3703 39.4345 96.8479 39.5252 96.5473 39.9372C96.0068 39.9265 95.4416 39.8185 94.9849 40.1945C94.9631 40.2132 94.9416 40.2359 94.9197 40.2545C94.6136 39.7852 94.0473 39.6505 93.5593 39.4225C93.0265 39.1719 92.5192 38.7772 91.8907 38.9372C90.6953 39.2438 89.5631 40.5852 89.0136 41.8932C88.1583 43.9265 88.7697 45.9252 90.1984 46.5945C91.3891 47.1518 92.9229 46.6812 93.9912 45.3758C94.4771 46.6625 95.5011 47.4812 96.6208 47.4812C97.5541 47.4812 98.4224 46.9105 98.9672 45.9758C99.474 46.1158 99.9916 46.1038 100.463 45.9185V45.9185ZM87.5339 57.2878C87.5292 57.281 87.9932 56.6472 88.2355 55.593C88.4964 54.552 88.4136 53.0686 87.8807 52.1034C87.3609 51.1326 86.8249 50.7201 86.4 50.6181C86.326 50.6004 86.2541 50.5925 86.1828 50.5925C85.8495 50.5925 85.5631 50.7796 85.2959 51.0446C84.6391 51.717 84.5323 52.6988 85.1636 54.005C85.474 54.6758 86.0916 55.3056 86.6099 55.992C87.1229 56.6477 87.5235 57.281 87.5339 57.2878V57.2878ZM95.9401 79.991C96.9235 79.5805 97.3729 79.104 97.5136 78.704C97.65 78.2982 97.4833 77.9414 97.2068 77.5982C96.8401 77.1629 96.3375 76.9228 95.6885 76.9228C95.3005 76.9228 94.8599 77.0086 94.3656 77.1914C93.6912 77.4253 93.0245 77.9618 92.3131 78.3941C91.6281 78.8305 90.9755 79.1572 90.9776 79.1613C90.9859 79.1613 91.5525 79.6665 92.5448 79.9993C93.0505 80.181 93.6787 80.2853 94.3036 80.2853C94.8869 80.2853 95.4667 80.1946 95.9401 79.991V79.991ZM81.6036 65.5561C80.9563 65.2332 80.4421 65.1108 80.0505 65.1108C79.8473 65.1108 79.676 65.143 79.5375 65.1988C79.1276 65.3665 78.9609 65.7368 78.8812 66.1842C78.7333 67.1129 79.2131 67.978 80.4844 68.6774C81.1235 69.0462 81.9916 69.205 82.8115 69.466C83.6099 69.704 84.3025 69.9894 84.3145 69.991C84.3079 69.9862 84.3208 69.1998 83.9083 68.2014C83.5203 67.2004 82.5973 66.0358 81.6036 65.5561V65.5561ZM97.9959 69.5962C98.0839 69.5962 98.1749 69.5878 98.2683 69.5738C98.9781 69.4446 99.4844 68.878 99.6697 67.778C99.7745 67.2222 99.6688 66.5514 99.6516 65.8914C99.6208 65.2472 99.6531 64.6701 99.65 64.6701C99.6568 64.6728 99.0817 64.8613 98.4557 65.4181C97.8287 65.9525 97.2188 66.9176 97.1229 67.7572C97.0151 68.5957 97.1672 69.093 97.3864 69.3472C97.5511 69.5321 97.7609 69.5962 97.9959 69.5962V69.5962ZM87.5271 60.278C87.5145 60.278 86.8167 59.5452 85.5375 58.9946C84.7323 58.6296 83.6656 58.4004 82.6489 58.4004C82.074 58.4004 81.514 58.4738 81.0276 58.6378C79.6749 59.0738 79.0255 59.6602 78.7979 60.1744C78.5713 60.6993 78.7531 61.1914 79.0839 61.6744C79.5735 62.3654 80.3161 62.7509 81.3339 62.7509C81.774 62.7509 82.2672 62.679 82.8131 62.5274C83.7349 62.29 84.6776 61.6498 85.6697 61.152C86.6203 60.652 87.5145 60.2889 87.5271 60.278V60.278ZM101.346 62.041C101.184 63.0514 101.389 64.454 101.975 65.3244C102.551 66.202 103.095 66.5477 103.508 66.6108C103.552 66.617 103.593 66.6196 103.635 66.6196C103.99 66.6196 104.269 66.4081 104.52 66.1134C105.087 65.4181 105.107 64.4764 104.396 63.2889C104.046 62.679 103.405 62.1316 102.857 61.5233C102.31 60.9425 101.876 60.3712 101.87 60.3712C101.877 60.3712 101.486 61.0124 101.346 62.041V62.041ZM135.864 47.3012C136.16 47.7745 136.332 48.3172 136.556 48.8398L136.613 48.8158C136.416 48.2905 136.267 47.7358 135.981 47.2318C135.707 46.7252 135.267 46.2918 134.728 46.0492L134.701 46.0505C134.091 46.2812 133.577 46.7265 133.24 47.2638C132.89 47.7998 132.686 48.3998 132.43 48.9665L132.485 48.9932C132.767 48.4318 132.994 47.8452 133.352 47.3412C133.675 46.8692 134.127 46.4998 134.649 46.2945C135.02 46.6798 135.259 47.1812 135.347 47.7185C135.452 48.2972 135.409 48.8958 135.424 49.4932H135.488C135.495 48.8998 135.564 48.2998 135.48 47.6972C135.427 47.2492 135.268 46.8065 135.011 46.4265C135.356 46.6425 135.649 46.9438 135.864 47.3012V47.3012ZM99.0083 57.4253C98.9912 57.4244 98.4916 57.2586 97.7307 57.2586C97.6016 57.2586 97.4656 57.2629 97.3229 57.2744C96.3364 57.3296 95.0552 57.8097 94.3552 58.543C93.6448 59.267 93.4297 59.8529 93.4546 60.254C93.4864 60.6597 93.764 60.9129 94.1339 61.1081C94.3875 61.2368 94.6546 61.3045 94.9328 61.3045C95.5021 61.3045 96.1192 61.0233 96.774 60.4086C97.2755 59.9529 97.6615 59.2362 98.1224 58.593C98.5604 57.9566 99.0109 57.4269 99.0083 57.4253V57.4253ZM122.786 43.6492C123.553 44.2332 124.761 44.7025 125.789 44.7025C125.894 44.7025 125.996 44.6972 126.097 44.6879C127.182 44.5932 127.767 44.2665 128.028 43.9212C128.284 43.5665 128.234 43.1678 128.071 42.7492C127.735 41.9412 126.964 41.4678 125.681 41.4678C125.598 41.4678 125.513 41.4705 125.427 41.4732C124.697 41.4945 123.882 41.8105 123.056 42.0145C122.252 42.2278 121.515 42.3438 121.518 42.3492C121.525 42.3492 121.921 43.0158 122.786 43.6492V43.6492ZM157.679 62.0072C156.709 61.2545 155.168 60.6457 153.865 60.6457C153.745 60.6457 153.629 60.6504 153.515 60.6608C152.144 60.7706 151.403 61.1753 151.072 61.6092C150.743 62.0529 150.801 62.5572 151.004 63.0868C151.423 64.1192 152.408 64.7264 154.056 64.7264C154.144 64.7264 154.233 64.7258 154.324 64.7206C155.245 64.7029 156.276 64.3144 157.32 64.067C158.335 63.8066 159.264 63.6676 159.264 63.6602C159.252 63.6581 158.763 62.8124 157.679 62.0072ZM151.319 57.1785C151.74 57.3968 152.185 57.5118 152.649 57.5118C153.577 57.5118 154.588 57.0561 155.66 56.0618C156.493 55.3192 157.132 54.1468 157.897 53.0952C158.619 52.0618 159.357 51.2029 159.364 51.1868C159.364 51.1868 159.364 51.1868 159.363 51.1868C159.336 51.1868 158.491 50.8977 157.208 50.8977C157.015 50.8977 156.811 50.9034 156.6 50.9186C154.98 51.0009 152.871 51.7733 151.711 52.9701C150.536 54.152 150.176 55.1108 150.216 55.7696C150.261 56.4362 150.713 56.8514 151.319 57.1785V57.1785ZM156.811 79.6316C155.997 80.5097 155.283 82.005 155.287 83.2332C155.276 84.4618 155.58 85.1525 155.94 85.4801C156.157 85.6733 156.404 85.7472 156.671 85.7472C156.855 85.7472 157.049 85.7113 157.249 85.6545C158.251 85.3477 158.883 84.4468 158.965 82.828C159.02 82.0077 158.753 81.0597 158.615 80.1129C158.463 79.1936 158.411 78.3586 158.407 78.3498C158.407 78.3561 157.613 78.728 156.811 79.6316V79.6316ZM151.059 67.816C151.383 67.3441 151.832 66.9748 152.356 66.7696C152.725 67.1545 152.965 67.6561 153.053 68.1925C153.159 68.7717 153.115 69.3696 153.132 69.9681L153.193 69.9676C153.201 69.3748 153.271 68.7753 153.188 68.1712C153.133 67.7248 152.975 67.281 152.717 66.902C153.063 67.1165 153.356 67.4186 153.571 67.7758C153.865 68.2493 154.04 68.7925 154.264 69.3149L154.32 69.291C154.121 68.7644 153.972 68.2113 153.688 67.7066C153.412 67.2004 152.973 66.7665 152.435 66.5233L152.407 66.5258C151.799 66.755 151.284 67.2014 150.945 67.7394C150.597 68.2748 150.393 68.8748 150.136 69.4414L150.192 69.4686C150.475 68.9077 150.7 68.3196 151.059 67.816V67.816ZM161.605 84.5712C162.188 85.0332 162.863 85.281 163.631 85.281C164.499 85.281 165.487 84.9634 166.591 84.2821C167.661 83.6493 168.611 82.505 169.673 81.5206C170.685 80.5446 171.68 79.7649 171.685 79.7498C171.663 79.7498 170.524 79.0868 168.723 78.8638C168.368 78.8124 167.985 78.7858 167.589 78.7858C165.989 78.7858 164.16 79.2077 162.939 80.0556C161.401 81.0936 160.803 82.0644 160.701 82.793C160.611 83.5321 161.015 84.0826 161.605 84.5712V84.5712ZM158.919 88.7618C158.792 89.992 159.48 91.093 161.199 91.9253C162.064 92.3638 163.216 92.5113 164.308 92.7977C165.372 93.054 166.301 93.3801 166.319 93.3801C166.311 93.3801 166.273 92.3477 165.66 91.0586C165.083 89.7722 163.787 88.3086 162.452 87.7482C161.653 87.4009 161.013 87.2676 160.517 87.2676C160.188 87.2676 159.92 87.3264 159.712 87.4212C159.187 87.6712 158.993 88.1692 158.919 88.7618V88.7618ZM127.854 58.3196C127.103 58.5509 126.207 59.1649 125.806 59.8638C125.396 60.5566 125.342 61.0488 125.438 61.3534C125.54 61.6602 125.801 61.8014 126.123 61.8821C126.234 61.9081 126.344 61.9217 126.454 61.9217C127.007 61.9217 127.543 61.5853 128.025 60.842C128.327 60.3957 128.487 59.7696 128.72 59.1858C128.935 58.616 129.18 58.1248 129.18 58.1165C129.18 58.1165 129.179 58.1165 129.174 58.1165C129.161 58.1165 129.128 58.1154 129.075 58.1154C128.875 58.1154 128.414 58.1348 127.854 58.3196V58.3196ZM161.609 96.5258C160.855 97.2384 160.152 98.4946 160.085 99.5586C160.007 100.622 160.231 101.238 160.524 101.545C160.723 101.746 160.964 101.82 161.228 101.82C161.363 101.82 161.503 101.801 161.649 101.77C162.535 101.561 163.133 100.815 163.295 99.4165C163.389 98.7097 163.212 97.8722 163.147 97.043C163.065 96.2342 163.069 95.504 163.065 95.504C163.073 95.5066 162.361 95.7826 161.609 96.5258V96.5258ZM165.813 99.1665C165.239 100.253 165.189 101.007 165.359 101.462C165.535 101.923 165.944 102.12 166.44 102.22C166.577 102.245 166.713 102.258 166.848 102.258C167.728 102.258 168.556 101.713 169.264 100.5C169.689 99.7982 169.889 98.8332 170.204 97.9285C170.492 97.043 170.829 96.2758 170.828 96.267C170.828 96.2733 169.952 96.2384 168.824 96.6717C167.695 97.0769 166.375 98.0744 165.813 99.1665V99.1665ZM134.621 75.7248C134.375 76.843 134.52 77.5321 134.785 77.9009C135.021 78.2201 135.364 78.3192 135.757 78.3192C135.82 78.3192 135.883 78.3165 135.947 78.3124C136.92 78.2238 137.669 77.5228 138.055 76.0597C138.263 75.3228 138.203 74.4077 138.257 73.5154C138.295 72.6498 138.407 71.8785 138.404 71.867C138.403 71.8738 137.607 72.0618 136.704 72.7316C135.791 73.3758 134.853 74.604 134.621 75.7248V75.7248ZM139.364 67.9296C139.063 66.691 138.153 65.1738 137.057 64.4545C136.201 63.8764 135.527 63.6692 135.033 63.6692C134.901 63.6692 134.781 63.6842 134.674 63.7118C134.165 63.8457 133.91 64.2572 133.747 64.7722C133.429 65.8441 133.86 66.9389 135.251 67.9624C135.948 68.4968 136.948 68.8176 137.873 69.254C138.78 69.6602 139.553 70.105 139.565 70.105C139.556 70.105 139.695 69.1805 139.364 67.9296V67.9296ZM132.809 55.1446C133.295 56.4305 134.32 57.2498 135.44 57.2498C136.373 57.2498 137.241 56.6796 137.787 55.7446C138.293 55.8848 138.809 55.8722 139.281 55.6868C140.608 55.1624 141.272 53.392 140.613 51.5077C140.191 50.2945 139.243 49.0212 138.18 48.6772C137.621 48.4972 137.141 48.8265 136.645 49.0225C136.189 49.2025 135.667 49.2932 135.365 49.7052C134.826 49.6945 134.26 49.5878 133.804 49.9625C133.782 49.9812 133.761 50.0025 133.738 50.0225C133.432 49.5545 132.866 49.4185 132.379 49.1905C131.845 48.9398 131.337 48.5452 130.709 48.7052C129.513 49.0118 128.381 50.3529 127.832 51.6613C126.977 53.6952 127.589 55.6936 129.017 56.3634C130.207 56.9206 131.741 56.4493 132.809 55.1446V55.1446ZM140.065 60.5034C139.155 60.5034 138.613 60.7301 138.336 61.0118C138.027 61.328 138.021 61.7353 138.129 62.1764C138.365 63.0873 139.152 63.6862 140.596 63.8212C140.716 63.8342 140.837 63.8394 140.964 63.8394C141.608 63.8394 142.329 63.6842 143.045 63.6102C143.872 63.5086 144.62 63.4936 144.632 63.4889C144.624 63.4889 144.323 62.7624 143.543 62.0108C142.787 61.2493 141.473 60.5534 140.372 60.5108C140.267 60.5066 140.164 60.5034 140.065 60.5034ZM148.136 85.7457C147.644 86.9034 147.66 87.6769 147.872 88.128C148.092 88.5832 148.527 88.7482 149.043 88.8066C149.12 88.8138 149.196 88.8176 149.272 88.8176C150.247 88.8176 151.115 88.1968 151.775 86.8045C152.148 86.0509 152.268 85.0493 152.508 84.0982C152.725 83.1692 153.004 82.3581 153.001 82.3477C153.004 82.355 152.105 82.3952 150.991 82.9368C149.876 83.4472 148.612 84.5826 148.136 85.7457ZM146.241 60.0118C146.359 60.0488 146.472 60.066 146.584 60.066C146.959 60.066 147.297 59.8722 147.623 59.5962C148.481 58.8373 148.703 57.6545 148.053 56.0086C147.739 55.166 147.045 54.3436 146.479 53.4624C145.915 52.6181 145.485 51.8108 145.473 51.8029C145.479 51.8108 144.857 52.5384 144.465 53.7988C144.053 55.0389 144.017 56.8504 144.577 58.0712C145.12 59.2977 145.735 59.8482 146.241 60.0118V60.0118ZM148.416 69.1805C147.22 69.4868 146.088 70.8274 145.539 72.1362C144.684 74.1701 145.296 76.1681 146.723 76.8373C147.913 77.3952 149.448 76.9238 150.516 75.6192C151.001 76.905 152.027 77.7248 153.147 77.7248C154.08 77.7248 154.948 77.1545 155.493 76.2196C156 76.3592 156.517 76.3477 156.988 76.1608C158.315 75.6368 158.979 73.8665 158.32 71.9816C157.897 70.7696 156.949 69.4962 155.887 69.1525C155.328 68.9722 154.848 69.3009 154.352 69.4968C153.896 69.6769 153.373 69.7676 153.072 70.1796C152.532 70.1701 151.967 70.0624 151.511 70.4373C151.488 70.4566 151.467 70.4785 151.445 70.4972C151.139 70.0285 150.573 69.893 150.085 69.6654C149.551 69.4149 149.044 69.0201 148.416 69.1805V69.1805ZM144.385 79.2534C144.315 79.2368 144.244 79.2305 144.177 79.2305C143.843 79.2305 143.556 79.4181 143.291 79.6842C142.64 80.3561 142.54 81.3326 143.177 82.6296C143.489 83.291 144.105 83.9138 144.625 84.5952C145.143 85.2457 145.544 85.8758 145.551 85.8758C145.544 85.8758 146.001 85.243 146.237 84.1868C146.492 83.1509 146.401 81.6785 145.867 80.7212C145.344 79.7624 144.808 79.355 144.385 79.2534V79.2534ZM91.2516 81.9654C90.5068 81.5326 89.438 81.2274 88.4755 81.2274C88.1885 81.2274 87.9115 81.255 87.6547 81.3138C86.5317 81.5556 85.9625 81.9733 85.7359 82.3692C85.5136 82.7728 85.6177 83.1842 85.8453 83.6004C86.2307 84.2774 86.912 84.6638 87.9255 84.6638C88.188 84.6638 88.4703 84.6378 88.7755 84.5858C89.5359 84.4696 90.3464 84.0321 91.1833 83.7129C91.9912 83.3853 92.7427 83.166 92.7484 83.1608C92.7407 83.1608 92.2401 82.5129 91.2516 81.9654V81.9654ZM65.6025 45.4025L65.5745 45.4052C64.9656 45.6345 64.4521 46.0812 64.114 46.6185C63.7645 47.1545 63.5609 47.7545 63.3041 48.3198L63.3609 48.3478C63.6416 47.7878 63.8683 47.1985 64.226 46.6945C64.55 46.2238 65.001 45.8532 65.5245 45.6492C65.8942 46.0332 66.1333 46.5359 66.2208 47.0719C66.326 47.6505 66.2839 48.2492 66.3 48.8478H66.3625C66.3688 48.2545 66.4391 47.6545 66.3552 47.0518C66.3011 46.6038 66.1421 46.1598 65.8859 45.7812C66.2312 45.9958 66.524 46.2972 66.7396 46.6545C67.0344 47.1292 67.2073 47.6718 67.4312 48.1945L67.4885 48.1705C67.2896 47.6452 67.1412 47.0905 66.8557 46.5852C66.5812 46.0798 66.1416 45.6452 65.6025 45.4025V45.4025ZM58.7828 67.2462C58.4401 67.9468 57.9964 68.6138 57.8344 69.2649C57.4964 70.5378 57.7615 71.3968 58.4599 71.8826C58.6959 72.0405 58.9333 72.1477 59.1765 72.1477C59.2901 72.1477 59.4031 72.1248 59.5192 72.0738C59.8797 71.9081 60.2891 71.4488 60.5844 70.492C60.8943 69.541 60.7131 68.204 60.3005 67.3228C59.9041 66.4244 59.3817 65.9384 59.3823 65.9305C59.3755 65.9394 59.1265 66.5722 58.7828 67.2462V67.2462ZM63.8547 39.6478C63.7593 39.6478 63.6615 39.6492 63.5604 39.6532C62.2432 39.6892 60.6625 40.5065 59.7489 41.4079C58.8088 42.2972 58.4369 43.1585 58.426 43.1612C58.4281 43.1665 59.3292 43.1945 60.324 43.3278C61.2005 43.4265 62.0771 43.6278 62.8631 43.6278C62.9953 43.6278 63.1245 43.6225 63.2505 43.6105C64.9823 43.4692 65.9297 42.7625 66.2249 41.6758C66.3583 41.1478 66.3583 40.6625 65.9932 40.2772C65.6563 39.9305 64.9912 39.6478 63.8547 39.6478ZM59.8317 34.9052C60.9104 35.7545 61.8979 36.1465 62.7849 36.1465C63.3473 36.1465 63.8703 35.9879 64.3484 35.6905C64.9401 35.3079 65.3656 34.8492 65.3599 34.1652C65.3453 33.4878 64.8994 32.5412 63.6078 31.4332C62.376 30.3478 60.2787 29.7358 58.6443 29.7358C58.5812 29.7358 58.5188 29.7359 58.4568 29.7385C56.7948 29.7519 55.6864 30.2345 55.6631 30.2345H55.6625C55.6688 30.2505 56.4927 31.0665 57.3104 32.0612C58.1765 33.0705 58.9224 34.2145 59.8317 34.9052V34.9052ZM72.6156 66.2602C72.6583 65.8638 72.6082 65.5072 72.3025 65.2638C72.0921 65.1004 71.7489 64.9805 71.2406 64.9805C71.015 64.9805 70.7579 65.004 70.4631 65.0572C69.5057 65.2196 68.4355 65.9764 67.862 66.7301C67.264 67.4764 67.0817 68.1457 67.0745 68.1457C67.0745 68.1457 67.076 68.1457 67.0771 68.1457C67.1151 68.1457 67.7583 68.0769 68.4776 68.0717C68.5719 68.0692 68.6667 68.0692 68.7593 68.0692C69.0292 68.0692 69.2973 68.0753 69.5583 68.0753C69.9437 68.0753 70.3125 68.0592 70.6421 67.9785C71.8916 67.6972 72.5115 67.0848 72.6156 66.2602V66.2602ZM71.6516 59.6936C70.8167 59.1482 69.6005 58.8837 68.5115 58.8837C68.1625 58.8837 67.8265 58.9102 67.5197 58.9634C66.2453 59.1597 65.4511 59.6525 65.4349 59.6525C65.4407 59.6638 66.1604 60.1972 66.8989 60.8706C67.6729 61.5482 68.3703 62.342 69.1427 62.7692C69.9099 63.2144 70.5932 63.4206 71.1921 63.4206C71.7682 63.4206 72.2672 63.229 72.6891 62.8748C73.1 62.517 73.3765 62.117 73.2953 61.5936C73.2109 61.0774 72.7651 60.4009 71.6516 59.6936V59.6936ZM68.226 72.3868C67.6849 73.2414 67.0167 74.0405 66.7156 74.8586C66.0984 76.4529 66.3188 77.5982 67.1521 78.3264C67.4677 78.592 67.7959 78.7758 68.1563 78.7758C68.2645 78.7758 68.3765 78.7592 68.4916 78.7228C68.9803 78.5613 69.5729 78.0248 70.0901 76.8332C70.6276 75.6493 70.5822 73.8972 70.1754 72.7004C69.7921 71.4868 69.1869 70.7858 69.1891 70.7748C69.1776 70.7862 68.7667 71.567 68.226 72.3868V72.3868ZM63.5369 71.0269C62.9568 71.304 62.3281 71.5092 61.8907 71.8477C61.0188 72.4968 60.7511 73.1873 60.9547 73.8602C61.0593 74.1848 61.2208 74.4436 61.5412 74.5274C61.6057 74.543 61.6797 74.552 61.7609 74.552C62.0729 74.552 62.4989 74.4206 63.0396 74.0488C63.7271 73.5936 64.2948 72.6353 64.4797 71.8534C64.6833 71.0712 64.5927 70.4889 64.5984 70.4816C64.5875 70.4868 64.1047 70.7676 63.5369 71.0269ZM69.0541 48.0318C68.4964 47.8518 68.0161 48.1812 67.5203 48.3758C67.0636 48.5572 66.5421 48.6478 66.2401 49.0598C65.7005 49.0492 65.1354 48.9412 64.6797 49.3172C64.6568 49.3358 64.6358 49.3572 64.6136 49.3758C64.3073 48.9078 63.7412 48.7732 63.2531 48.5452C62.7197 48.2932 62.2131 47.8998 61.5844 48.0598C60.3875 48.3665 59.2563 49.7065 58.7068 51.0154C57.8521 53.0493 58.464 55.0477 59.8916 55.7176C61.0823 56.2748 62.6161 55.8034 63.6839 54.4988C64.1703 55.7837 65.1953 56.604 66.3145 56.604C67.2479 56.604 68.1161 56.0337 68.6604 55.0988C69.1683 55.2384 69.6849 55.2274 70.1563 55.0405C71.4828 54.5165 72.1469 52.7462 71.488 50.8618C71.0656 49.6492 70.1172 48.3758 69.0541 48.0318V48.0318ZM92.6391 71.3744C92.5511 71.3686 92.4615 71.3644 92.3703 71.3644C91.6161 71.3654 90.7683 71.5821 89.9197 71.6968C88.9989 71.8378 88.1645 71.8826 88.1552 71.8873C88.1631 71.8873 88.5265 72.6842 89.4224 73.4957C90.2907 74.3186 91.7787 75.0482 93.0063 75.0556C93.0525 75.0561 93.0984 75.0572 93.1443 75.0572C94.2859 75.0572 94.9407 74.7696 95.2588 74.4269C95.5916 74.0613 95.5817 73.6077 95.4473 73.1192C95.1516 72.1144 94.2568 71.4728 92.6391 71.3744V71.3744ZM49.6255 77.4462C48.4287 77.7525 47.2973 79.093 46.7479 80.402C45.8927 82.4358 46.5047 84.4337 47.9328 85.1029C49.1229 85.6608 50.6579 85.19 51.7249 83.8853C52.2104 85.1712 53.2364 85.9905 54.3552 85.9905C55.288 85.9905 56.1568 85.4201 56.7021 84.4853C57.2088 84.6248 57.726 84.6134 58.1969 84.4269C59.524 83.9025 60.188 82.1321 59.5297 80.2482C59.1057 79.0353 58.1583 77.7624 57.0953 77.4181C56.5369 77.2378 56.0573 77.5665 55.5609 77.7629C55.1052 77.9436 54.5823 78.0332 54.2807 78.4452C53.7412 78.4358 53.176 78.328 52.7197 78.7025C52.6973 78.7212 52.6765 78.743 52.6547 78.7629C52.3479 78.2952 51.7823 78.1597 51.2937 77.931C50.7599 77.6805 50.2536 77.2853 49.6255 77.4462V77.4462ZM31.1953 49.2972C30.0355 49.4878 28.7355 50.3968 28.0369 51.3014C27.3093 52.2014 27.0844 53.0077 27.076 53.0077C27.076 53.0077 27.0771 53.0077 27.0781 53.0077C27.1287 53.0077 27.9068 52.9305 28.7713 52.9285C28.8525 52.9269 28.9349 52.9264 29.0161 52.9264C29.4025 52.9264 29.7896 52.9414 30.1625 52.9414C30.5979 52.9414 31.0161 52.9212 31.3921 52.8316C32.9031 52.4993 33.6573 51.7638 33.788 50.7696C33.8443 50.2878 33.7869 49.8572 33.4177 49.5612C33.1604 49.3598 32.7396 49.2118 32.1073 49.2118C31.8416 49.2118 31.538 49.2372 31.1953 49.2972V49.2972ZM37.8812 50.4832C37.9557 50.8654 38.1005 51.179 38.4525 51.317C38.5656 51.3602 38.7041 51.3862 38.8683 51.3862C39.2047 51.3862 39.6489 51.2769 40.2093 50.9862C41.0489 50.5665 41.8229 49.5652 42.1407 48.7092C42.4792 47.8532 42.4588 47.1852 42.4645 47.1785C42.4536 47.1812 41.8688 47.4318 41.1912 47.6452C40.4979 47.8772 39.7588 48.0212 39.2177 48.3425C38.1459 48.9545 37.7464 49.6972 37.8812 50.4832ZM47.9489 62.5998C48.3005 62.9081 48.6703 63.1248 49.0803 63.1248C49.1943 63.1248 49.3104 63.1086 49.4312 63.0728C49.9792 62.905 50.6511 62.3217 51.2588 61.0086C51.8807 59.7029 51.8724 57.7509 51.4473 56.4072C51.0479 55.0425 50.3896 54.2493 50.3959 54.2394C50.3823 54.2493 49.9079 55.1113 49.2844 56.0097C48.6593 56.952 47.8989 57.8253 47.5459 58.729C46.8197 60.4894 47.0369 61.7701 47.9489 62.5998ZM36.5145 47.8478C36.5536 47.8478 36.5953 47.8452 36.6364 47.8412C37.1125 47.7825 37.7511 47.3999 38.4432 46.4052C39.1443 45.4212 39.4229 43.8092 39.2688 42.6412C39.1375 41.4572 38.7109 40.7078 38.7167 40.6998C38.7041 40.7078 38.1869 41.3478 37.5443 41.9998C36.8916 42.6852 36.1375 43.2932 35.7151 43.9865C34.8604 45.3318 34.8521 46.4185 35.4849 47.2358C35.7697 47.5918 36.0921 47.8478 36.5145 47.8478V47.8478ZM50.5812 65.0696C50.6183 65.5561 50.7579 65.9696 51.1765 66.1914C51.3651 66.2884 51.6156 66.3504 51.9359 66.3504C52.3245 66.3504 52.8161 66.2586 53.4224 66.0258C54.5323 65.6212 55.6421 64.4764 56.1604 63.4514C56.7041 62.4274 56.774 61.5878 56.7828 61.5821C56.7672 61.5826 56 61.8138 55.1229 61.9853C54.2224 62.1774 53.2787 62.252 52.5557 62.578C51.1271 63.192 50.5235 64.0644 50.5812 65.0696V65.0696ZM42.7297 56.1848C42.9188 56.2977 43.1073 56.3733 43.2964 56.3733C43.4016 56.3733 43.5063 56.3504 43.6109 56.2962C43.9016 56.1446 44.2172 55.7482 44.4188 54.9472C44.6333 54.1504 44.4255 53.0566 44.0464 52.3482C43.6828 51.6248 43.2297 51.2493 43.2297 51.241C43.224 51.2509 43.0479 51.7821 42.7932 52.3514C42.5401 52.9436 42.2041 53.5124 42.1016 54.0561C41.8765 55.1206 42.1323 55.8144 42.7297 56.1848ZM54.7803 76.041C55.0749 76.5149 55.2484 77.0581 55.4724 77.5805L55.5297 77.5566C55.3312 77.0305 55.1817 76.4764 54.8969 75.9722C54.6224 75.4654 54.1828 75.0321 53.6437 74.7889L53.6156 74.7914C53.0063 75.0206 52.4937 75.467 52.1552 76.005C51.8063 76.5405 51.6021 77.1405 51.3448 77.7072L51.4021 77.7342C51.6828 77.1733 51.9099 76.5853 52.2683 76.0816C52.5916 75.6092 53.0421 75.2405 53.5656 75.0353C53.9355 75.4201 54.1745 75.9212 54.2615 76.4581C54.3672 77.0373 54.324 77.6353 54.3401 78.2337L54.4031 78.2332C54.4104 77.6405 54.4803 77.041 54.3964 76.4368C54.3421 75.9905 54.1833 75.5468 53.9276 75.1676C54.2724 75.3821 54.5645 75.6842 54.7803 76.041V76.041ZM95.4885 29.3905C94.1645 29.9039 93.5511 30.5265 93.3525 31.0545C93.1573 31.5905 93.3651 32.0718 93.7224 32.5358C94.2125 33.1478 94.9041 33.4852 95.8104 33.4852C96.3063 33.4852 96.8683 33.3838 97.4959 33.1692C98.4025 32.8798 99.3073 32.1878 100.268 31.6318C101.189 31.0772 102.064 30.6638 102.073 30.6532C102.06 30.6532 101.323 29.9612 100.012 29.4865C99.2973 29.2105 98.3916 29.0478 97.5011 29.0478C96.7844 29.0478 96.0771 29.1532 95.4885 29.3905V29.3905ZM76.8573 79.2629C76.1541 78.579 75.4885 78.3217 75.4859 78.3144C75.4828 78.3253 75.4885 79.0045 75.4188 79.7586C75.3625 80.5353 75.1989 81.3201 75.2921 81.9853C75.4521 83.2925 76.0188 83.9905 76.8479 84.1816C76.9812 84.2092 77.1109 84.2264 77.2359 84.2264C77.4864 84.2264 77.7151 84.1561 77.9021 83.9634C78.1755 83.6764 78.3823 83.0972 78.3005 82.0998C78.2349 81.1009 77.5683 79.9269 76.8573 79.2629ZM86.2989 29.3998C87.2803 30.3212 88.0749 30.6385 88.6427 30.6385C88.6849 30.6385 88.7254 30.6358 88.7661 30.6332C89.3442 30.5772 89.6953 30.1732 89.964 29.6399C90.5005 28.5279 90.2249 27.2598 88.8896 25.8972C88.2249 25.1918 87.1912 24.6638 86.2599 24.0252C85.3427 23.4212 84.5787 22.7972 84.5683 22.7972C84.5765 22.7972 84.2631 23.7825 84.4025 25.2039C84.5099 26.6079 85.2328 28.4212 86.2989 29.3998ZM97.0453 37.5332C97.3407 38.0065 97.514 38.5492 97.738 39.0719L97.7953 39.0478C97.5964 38.5212 97.4469 37.9678 97.162 37.4638C96.8869 36.9572 96.4489 36.5238 95.9083 36.2798L95.8812 36.2825C95.2724 36.5118 94.7588 36.9572 94.4203 37.4958C94.0713 38.0318 93.8677 38.6318 93.6109 39.1985L93.6677 39.2265C93.9484 38.6638 94.1755 38.0759 94.5339 37.5732C94.8573 37.1012 95.3079 36.7305 95.8303 36.5265C96.2005 36.9118 96.4391 37.4132 96.5276 37.9492C96.6333 38.5278 96.5896 39.1265 96.6068 39.7252L96.6677 39.7239C96.6765 39.1319 96.7453 38.5318 96.662 37.9278C96.6079 37.4812 96.4489 37.0385 96.1921 36.6585C96.538 36.8732 96.8303 37.1758 97.0453 37.5332V37.5332ZM91.0131 62.5025C90.8052 62.4176 90.5921 62.3733 90.3755 62.3733C89.7979 62.3733 89.1912 62.6842 88.574 63.3686C88.1344 63.8384 87.8271 64.5457 87.4421 65.191C87.0812 65.8212 86.6989 66.3529 86.6973 66.3638C86.7172 66.3638 87.0292 66.4373 87.5172 66.4373C87.7432 66.4373 88.0083 66.4212 88.2989 66.3744C89.2276 66.2441 90.4 65.69 91.0052 64.9414C91.6192 64.2025 91.7765 63.6326 91.7197 63.255C91.6593 62.8744 91.3781 62.6581 91.0131 62.5025V62.5025ZM93.2932 54.8462C93.314 54.0269 93.0083 53.0941 92.8292 52.1556C92.6369 51.243 92.5489 50.4097 92.5443 50.4097C92.5552 50.4124 91.7765 50.8138 91.0093 51.7561C90.238 52.6649 89.5907 54.1848 89.6479 55.4086C89.6921 56.6321 90.0245 57.3066 90.3969 57.6186C90.6052 57.7884 90.8344 57.8556 91.0765 57.8556C91.2787 57.8556 91.4907 57.8092 91.7088 57.7362C92.6943 57.3878 93.2844 56.4624 93.2932 54.8462V54.8462ZM83.5213 33.8039C84.2703 34.3759 85.4525 34.8358 86.4588 34.8358C86.5609 34.8358 86.662 34.8305 86.7609 34.8198C87.8229 34.7278 88.3948 34.4079 88.6489 34.0705C88.9011 33.7252 88.8516 33.3332 88.6912 32.9239C88.3636 32.1332 87.6083 31.6705 86.3531 31.6705C86.2719 31.6705 86.1891 31.6732 86.1047 31.6758C85.3916 31.6972 84.5932 32.0065 83.7849 32.2052C83.0005 32.4132 82.2803 32.5278 82.2803 32.5332C82.2896 32.5345 82.6755 33.1865 83.5213 33.8039V33.8039ZM93.3473 26.1772C94.9307 26.1758 96.2396 25.1465 97.0656 22.8465C97.5073 21.6825 97.5369 20.1958 97.7541 18.7638C97.9364 17.3718 98.2276 16.1425 98.2229 16.1252C98.2224 16.1372 96.912 16.3252 95.3546 17.2798C93.7953 18.1905 92.1068 20.0385 91.5745 21.8172C91.0203 23.5878 91.1568 24.7198 91.5323 25.3518C91.9219 25.9865 92.5812 26.1665 93.3473 26.1772V26.1772ZM70.2479 40.4732C70.3401 40.8772 70.5082 41.2052 70.8854 41.3399C70.9953 41.3785 71.126 41.3998 71.2771 41.3998C71.6412 41.3998 72.1292 41.2705 72.7458 40.9239C73.6254 40.4465 74.4136 39.3505 74.7202 38.4278C75.05 37.5052 75.0041 36.7932 75.0098 36.7852C74.9984 36.7878 74.3838 37.0772 73.6702 37.3278C72.9401 37.6012 72.1583 37.7812 71.5943 38.1425C70.4729 38.8345 70.076 39.6399 70.2479 40.4732ZM72.6416 44.2852C72.6172 44.6265 72.6708 44.9265 72.9349 45.1239C73.1057 45.2452 73.3724 45.3332 73.7536 45.3332C73.9656 45.3332 74.2151 45.3065 74.5031 45.2425C75.3115 45.0798 76.1973 44.4052 76.6636 43.7505C77.1464 43.1025 77.2803 42.5292 77.2891 42.5252C77.2771 42.5252 76.7224 42.6038 76.1 42.6305C75.4568 42.6692 74.7978 42.6212 74.265 42.7719C73.214 43.0452 72.7063 43.5852 72.6416 44.2852V44.2852ZM77.1473 72.8686C77.0401 72.8353 76.9156 72.8165 76.774 72.817C76.3672 72.817 75.8183 72.9722 75.1213 73.3941C74.1765 73.952 73.353 75.1837 73.0521 76.2097C72.724 77.2405 72.8021 78.0206 72.7948 78.0206C72.8063 78.0206 73.4697 77.6796 74.2453 77.3769C75.0375 77.0504 75.8864 76.8228 76.4932 76.4029C77.6973 75.6025 78.1031 74.704 77.8792 73.7946C77.7645 73.3561 77.5688 73.0014 77.1473 72.8686V72.8686ZM68.6568 37.7158C68.7115 37.7158 68.7672 37.7118 68.8245 37.7038C69.3286 37.6238 69.9958 37.1932 70.6958 36.1079C71.4093 35.0332 71.6458 33.3065 71.438 32.0665C71.2557 30.8118 70.774 30.0278 70.7797 30.0198C70.7667 30.0278 70.2396 30.7305 69.5781 31.4465C68.9079 32.1998 68.1265 32.8758 67.7016 33.6305C66.8401 35.0958 66.8724 36.2545 67.5749 37.0998C67.8823 37.4598 68.2249 37.7158 68.6568 37.7158V37.7158ZM76.4156 49.5732C76.3599 49.5745 76.3041 49.5745 76.25 49.5745C75.6932 49.5745 75.2229 49.5345 75.1828 49.5345C75.1807 49.5345 75.1803 49.5345 75.1803 49.5345V49.5358C75.1859 49.5358 75.3583 50.1185 75.8973 50.767C76.4183 51.4192 77.3729 52.066 78.2203 52.19C78.4525 52.2274 78.6599 52.2446 78.8427 52.2446C79.3249 52.2446 79.6448 52.1296 79.8369 51.9753C80.1 51.7545 80.1375 51.441 80.0932 51.091C79.9855 50.3681 79.4303 49.8398 78.3229 49.6145C78.0855 49.5638 77.8265 49.5478 77.5573 49.5478C77.2021 49.5478 76.8292 49.5732 76.4593 49.5732C76.4443 49.5732 76.4303 49.5732 76.4156 49.5732V49.5732ZM79.5615 39.6985C80.488 40.4052 81.9536 40.9732 83.1964 40.9732C83.3219 40.9732 83.4464 40.9665 83.5667 40.9545C84.8797 40.8385 85.5885 40.4438 85.9021 40.0252C86.2151 39.5972 86.1525 39.1145 85.9541 38.6092C85.5484 37.6318 84.6177 37.0585 83.0708 37.0585C82.9692 37.0585 82.864 37.0612 82.7568 37.0665C81.8729 37.0905 80.8875 37.4732 79.8875 37.7198C78.9177 37.9758 78.0255 38.1185 78.0255 38.1239C78.0355 38.1265 78.514 38.9345 79.5615 39.6985V39.6985ZM78.8609 42.4052C78.8672 42.4092 78.4312 43.1145 78.262 44.2465C78.0719 45.3598 78.2817 46.9118 78.9197 47.8812C79.5464 48.8585 80.1427 49.2492 80.5979 49.3225C80.6511 49.3305 80.7016 49.3345 80.7521 49.3345C81.1385 49.3345 81.4459 49.1052 81.724 48.7838C82.3583 48.0225 82.3921 46.9825 81.6188 45.6612C81.2396 44.9825 80.5375 44.3705 79.938 43.6918C79.3432 43.0425 78.8703 42.4092 78.8609 42.4052V42.4052ZM167.669 103.685C153.885 103.685 142.633 105.779 129.68 107.218C121.079 108.173 121.96 103.03 116.203 104.6C115.18 108.215 111.235 109.607 106.389 112.583C102.719 114.836 100.441 119.905 99.0271 126.617C96.864 136.886 95.1787 164.053 99.7479 173.288C101.866 177.571 105.51 180.425 110.792 181.773C105.142 182.952 98.8104 183.667 92.6213 183.667C85.3192 183.667 77.9317 182.708 71.3192 181.084C77.4625 179.608 81.3416 176.405 83.2771 172.001C88.5172 160.077 90.3333 138.956 88.5172 129.335C87.188 122.293 83.7771 117.363 76.5563 116.944C72.6672 116.718 68.1708 113.638 65.2375 113.891C59.0875 114.421 60.1416 123.672 51.2151 121.548C42.7792 119.473 39.2661 120.301 29.7849 122.086C45.9401 113.891 54.1828 124.095 60.7249 112.189C62.5656 108.841 69.6817 113.622 67.6172 110.156C65.7651 106.927 53.1359 107.871 49.3416 106.694C40.8005 104.043 34.6864 96.8801 20.2505 88.1581C29.6563 92.2692 37.7079 98.0014 46.5943 103.161C52.2036 106.401 61.324 104.345 67.513 105.885C72.3656 107.094 70.8651 111.611 75.8631 112.41C80.7011 113.184 84.6735 113.764 90.2115 117.34C85.0625 95.8332 74.5948 97.0118 54.7937 96.5326C72.2385 94.6561 75.1183 97.6654 80.3557 96.2201C75.9989 86.0493 66.3297 81.6706 55.8833 73.9832C48.9489 68.8801 41.0979 59.0665 33.8583 47.5092C39.6245 54.9264 43.1973 60.2717 48.4833 65.0644C57.3656 74.7362 68.8787 80.017 79.1339 87.3244C86.3516 74.9602 83.512 78.1728 75.4333 69.6029C73.0245 67.0482 73.9136 63.4373 74.8568 60.8993C73.1547 50.2998 71.6385 47.4225 66.1333 37.3905C71.7109 46.4852 73.7645 49.0105 75.8249 58.9862C83.9412 48.6558 88.2859 42.5145 92.3021 28.4918C89.8745 38.6265 86.8937 44.4132 83.7536 49.9078C82.9489 51.3165 76.5573 60.6342 76.5667 60.5692C74.1849 67.7134 78.2984 68.8733 83.2192 72.793C90.7229 78.79 79.8531 85.9436 82.6787 93.5561C85.0948 88.1608 101.228 80.9914 100.878 80.3952C95.7912 71.7586 94.7432 68.9244 91.6916 59.1977C94.5349 65.166 102.071 86.5436 102.987 70.9733C103.23 66.8561 110.253 64.3826 113.142 62.3358C120.52 57.104 125.1 55.9264 131.555 38.9598C127.194 55.6649 122.528 57.5581 110.863 66.0228C123.051 64.9113 125.014 62.2936 136.789 61.7717C129.593 63.0796 124.194 65.4097 120.827 66.2196C110.49 68.705 103.381 66.9181 104.689 80.1326C105.257 85.8744 97.7683 85.2004 90.8188 90.2077C81.9219 96.6196 91.2692 103.306 95.4484 114.744C108.614 98.3201 109.476 110.851 111.362 91.3862C111.937 85.441 118.145 84.355 124.97 83.2733C143.941 80.2644 139.233 74.3332 149.875 58.8482C141.848 73.9832 145.251 82.6186 131.064 84.7066C144.989 92.5634 149.831 90.992 160.167 85.3665C150.353 92.8248 148.175 94.3436 136.877 90.4696C127.717 87.3296 109.922 84.8425 116.072 101.591C123.849 100.346 123.87 105.048 130.397 104.539C143.025 103.553 154.017 102.245 167.669 103.685" fill="white"/>
</g>
<defs>
<clipPath id="clip0_369_7">
<rect width="185" height="186" fill="white"/>
</clipPath>
</defs>
</svg>
